<svg width="148" height="79" viewBox="0 0 148 79" fill="none" xmlns="http://www.w3.org/2000/svg">
<path fill-rule="evenodd" clip-rule="evenodd" d="M124.921 33.4458C124.973 32.7093 124.999 31.9657 124.999 31.2159C124.999 13.9758 111.023 0 93.7833 0C82.7686 0 73.0863 5.70487 67.5301 14.3211C63.255 10.9381 57.8518 8.91846 51.9768 8.91846C38.3093 8.91846 27.1948 19.8493 26.8986 33.4458H22.4328C10.1185 33.4458 0.135742 43.4286 0.135742 55.7429C0.135742 68.0572 10.1185 78.04 22.4328 78.04H124.999C137.314 78.04 147.297 68.0572 147.297 55.7429C147.297 43.4286 137.314 33.4458 124.999 33.4458H124.921Z" fill="#3B45A2"/>
</svg>
