<svg width="148" height="79" viewBox="0 0 148 79" fill="none" xmlns="http://www.w3.org/2000/svg">
<path fill-rule="evenodd" clip-rule="evenodd" d="M124.992 34.1221C125.044 33.3855 125.071 32.6419 125.071 31.8922C125.071 14.6521 111.095 0.67627 93.8546 0.67627C82.8399 0.67627 73.1576 6.38114 67.6013 14.9973C63.3263 11.6144 57.923 9.59473 52.0481 9.59473C38.3806 9.59473 27.2661 20.5256 26.9699 34.1221H22.5041C10.1898 34.1221 0.207031 44.1048 0.207031 56.4192C0.207031 68.7335 10.1898 78.7162 22.5041 78.7162H125.071C137.385 78.7162 147.368 68.7335 147.368 56.4192C147.368 44.1048 137.385 34.1221 125.071 34.1221H124.992Z" fill="#D25454"/>
</svg>
