<svg width="148" height="79" viewBox="0 0 148 79" fill="none" xmlns="http://www.w3.org/2000/svg">
<path fill-rule="evenodd" clip-rule="evenodd" d="M99.0147 18.0612C101.753 16.5243 104.913 15.6478 108.277 15.6478C118.406 15.6478 126.679 23.5941 127.203 33.593C138.483 34.6995 147.297 44.2118 147.297 55.7826C147.297 68.0969 137.314 78.0797 124.999 78.0797H22.4328C10.1185 78.0797 0.135742 68.0969 0.135742 55.7826C0.135742 43.6848 9.77051 33.8373 21.7854 33.4947C23.8297 23.9326 32.3272 16.7623 42.4995 16.7623C44.6079 16.7623 46.6444 17.0704 48.5664 17.644C52.3047 7.37409 62.1542 0.0400391 73.7166 0.0400391C85.435 0.0400391 95.3939 7.57332 99.0147 18.0612Z" fill="#3B45A2"/>
</svg>
