<svg width="148" height="79" viewBox="0 0 148 79" fill="none" xmlns="http://www.w3.org/2000/svg">
<path fill-rule="evenodd" clip-rule="evenodd" d="M99.086 18.7375C101.825 17.2005 104.984 16.3241 108.348 16.3241C118.477 16.3241 126.75 24.2704 127.274 34.2693C138.554 35.3758 147.368 44.888 147.368 56.4588C147.368 68.7732 137.385 78.7559 125.071 78.7559H22.5041C10.1898 78.7559 0.207031 68.7732 0.207031 56.4588C0.207031 44.361 9.8418 34.5135 21.8567 34.171C23.901 24.6089 32.3985 17.4386 42.5708 17.4386C44.6792 17.4386 46.7157 17.7467 48.6377 18.3202C52.376 8.05036 62.2255 0.716309 73.7879 0.716309C85.5063 0.716309 95.4652 8.24959 99.086 18.7375Z" fill="#D25454"/>
</svg>
