<svg width="148" height="76" viewBox="0 0 148 76" fill="none" xmlns="http://www.w3.org/2000/svg">
<path fill-rule="evenodd" clip-rule="evenodd" d="M128.209 25.7215C128.209 27.6936 127.986 29.6137 127.565 31.458C138.605 32.7913 147.161 42.1931 147.161 53.5931C147.161 65.9075 137.178 75.8902 124.864 75.8902H22.2971C9.98276 75.8902 0 65.9075 0 53.5931C0 41.9463 8.92982 32.3851 20.3163 31.3828C21.8832 21.2307 30.6587 13.458 41.2496 13.458C47.7295 13.458 53.5298 16.3676 57.4152 20.9516C61.3007 16.3678 67.1009 13.4583 73.5807 13.4583C75.6688 13.4583 77.6864 13.7604 79.592 14.3234C83.7882 5.88131 92.5003 0.079834 102.567 0.079834C116.729 0.079834 128.209 11.56 128.209 25.7215Z" fill="#3B45A2"/>
</svg>
