<svg width="148" height="77" viewBox="0 0 148 77" fill="none" xmlns="http://www.w3.org/2000/svg">
<path fill-rule="evenodd" clip-rule="evenodd" d="M128.28 26.3978C128.28 28.3698 128.058 30.2899 127.636 32.1343C138.677 33.4676 147.232 42.8694 147.232 54.2694C147.232 66.5837 137.249 76.5665 124.935 76.5665H22.3684C10.0541 76.5665 0.0712891 66.5837 0.0712891 54.2694C0.0712891 42.6226 9.00111 33.0614 20.3876 32.0591C21.9545 21.9069 30.73 14.1343 41.3209 14.1343C47.8008 14.1343 53.601 17.0439 57.4865 21.6279C61.372 17.044 67.1722 14.1345 73.652 14.1345C75.7401 14.1345 77.7577 14.4367 79.6633 14.9996C83.8595 6.55758 92.5716 0.756104 102.639 0.756104C116.8 0.756104 128.28 12.2363 128.28 26.3978Z" fill="#D25454"/>
</svg>
