<svg width="1519" height="380" viewBox="0 0 1519 380" fill="none" xmlns="http://www.w3.org/2000/svg">
<ellipse cx="224.2" cy="79.4233" rx="329.429" ry="143.186" fill="#1A1D5B"/>
<path d="M594.683 105.457C594.683 124.893 585.624 143.49 569.078 160.493C552.528 177.501 528.53 192.864 498.797 205.787C439.336 231.632 357.121 247.642 266.255 247.642C175.39 247.642 93.1744 231.632 33.7128 205.787C3.98046 192.864 -20.0174 177.501 -36.5681 160.493C-53.1141 143.49 -62.1725 124.893 -62.1725 105.457C-62.1725 86.0206 -53.1141 67.4239 -36.5681 50.4207C-20.0174 33.4127 3.98046 18.0504 33.7128 5.12716C93.1744 -20.7178 175.39 -36.7282 266.255 -36.7282C357.121 -36.7282 439.336 -20.7178 498.797 5.12716C528.53 18.0504 552.528 33.4127 569.078 50.4207C585.624 67.4239 594.683 86.0206 594.683 105.457Z" stroke="black" stroke-width="2.00261"/>
<ellipse cx="903.085" cy="155.521" rx="329.429" ry="143.186" fill="#1F226F"/>
<path d="M1253.19 194.726C1252.29 214.142 1242.39 232.3 1225.07 248.521C1207.75 264.746 1183.07 278.983 1152.77 290.519C1092.18 313.589 1009.31 325.785 918.545 321.587C827.777 317.389 746.389 297.598 688.185 269.033C659.081 254.75 635.819 238.296 620.071 220.542C604.328 202.792 596.139 183.797 597.037 164.381C597.935 144.966 607.843 126.807 625.156 110.586C642.475 94.3613 667.157 80.1239 697.455 68.5881C758.047 45.5176 840.914 33.3225 931.682 37.5202C1022.45 41.7179 1103.84 61.5093 1162.04 90.0737C1191.15 104.357 1214.41 120.811 1230.16 138.566C1245.9 156.315 1254.09 175.31 1253.19 194.726Z" stroke="black" stroke-width="2.00261"/>
<ellipse cx="1123.37" cy="37.3676" rx="221.288" ry="143.186" fill="#11133E"/>
<path d="M1311.08 70.7481C1308.36 109.74 1281.45 143.469 1239.88 166.425C1198.32 189.376 1142.21 201.48 1081.42 197.231C1020.62 192.983 966.744 173.193 928.778 144.685C890.803 116.17 868.853 79.0275 871.578 40.0359C874.303 1.04419 901.205 -32.6845 942.777 -55.6411C984.339 -78.5918 1040.45 -90.6956 1101.24 -86.4473C1162.04 -82.199 1215.91 -62.4095 1253.88 -33.9014C1291.85 -5.38613 1313.8 31.7564 1311.08 70.7481Z" stroke="black" stroke-width="2.00261"/>
<ellipse cx="480.534" cy="199.579" rx="221.288" ry="143.186" fill="#15174A"/>
<path d="M706.348 207.051C708.93 246.053 686.845 283.115 648.767 311.492C610.697 339.862 556.747 359.455 495.938 363.482C435.128 367.509 379.065 355.201 337.587 332.099C296.099 308.991 269.32 275.165 266.737 236.163C264.154 197.162 286.239 160.1 324.318 131.723C362.387 103.353 416.337 83.7598 477.147 79.7329C537.957 75.7059 594.019 88.0139 635.497 111.116C676.985 134.224 703.765 168.05 706.348 207.051Z" stroke="black" stroke-width="2.00261"/>
<ellipse cx="690.808" cy="37.3676" rx="243.317" ry="143.186" fill="#271A5B"/>
<path d="M914.8 45.3392C916.742 84.3311 891.646 121.15 849.109 149.12C806.594 177.076 746.817 196.067 679.857 199.401C612.897 202.736 551.529 189.779 506.447 166.186C461.341 142.58 432.711 108.437 430.769 69.4453C428.827 30.4533 453.923 -6.36563 496.46 -34.3359C538.975 -62.2915 598.752 -81.2821 665.712 -84.6169C732.672 -87.9517 794.04 -74.9945 839.122 -51.4014C884.228 -27.796 912.858 6.34723 914.8 45.3392Z" stroke="black" stroke-width="2.00261"/>
<ellipse cx="1397.73" cy="143.506" rx="243.317" ry="179.233" fill="#231A5B"/>
<path d="M1662.07 163.532C1662.07 212.633 1635.06 257.167 1591.22 289.463C1547.37 321.759 1486.76 341.764 1419.76 341.764C1352.76 341.764 1292.14 321.759 1248.3 289.463C1204.46 257.167 1177.44 212.633 1177.44 163.532C1177.44 114.432 1204.46 69.8971 1248.3 37.6013C1292.14 5.30568 1352.76 -14.6999 1419.76 -14.6999C1486.76 -14.6999 1547.37 5.30568 1591.22 37.6013C1635.06 69.8971 1662.07 114.432 1662.07 163.532Z" stroke="black" stroke-width="2.00261"/>
</svg>
