<svg width="1519" height="841" viewBox="0 0 1519 841" fill="none" xmlns="http://www.w3.org/2000/svg">
<mask id="path-1-inside-1_160_2" fill="white">
<path fill-rule="evenodd" clip-rule="evenodd" d="M695.674 37.6493C695.502 39.6139 695.113 41.5073 694.533 43.3079C705.415 45.5982 713.119 55.71 712.125 67.0668C711.052 79.3343 700.237 88.409 687.97 87.3357L585.793 78.3965C573.526 77.3232 564.451 66.5084 565.524 54.2409C566.54 42.6384 576.269 33.8919 587.699 33.8858C590.145 23.9091 599.565 16.9311 610.115 17.8541C616.57 18.4189 622.095 21.8228 625.566 26.7278C629.836 22.4999 635.868 20.1069 642.323 20.6716C644.403 20.8536 646.387 21.3304 648.236 22.0573C653.152 14.0131 662.336 8.99304 672.365 9.87045C686.473 11.1047 696.909 23.5417 695.674 37.6493Z"/>
</mask>
<path d="M694.533 43.3079L693.027 42.8223L692.487 44.4945L694.207 44.8564L694.533 43.3079ZM587.699 33.8858L587.7 35.4682L588.941 35.4675L589.236 34.2626L587.699 33.8858ZM625.566 26.7278L624.274 27.6419L625.353 29.1657L626.679 27.8523L625.566 26.7278ZM648.236 22.0573L647.657 23.53L648.893 24.0159L649.586 22.8824L648.236 22.0573ZM696.039 43.7936C696.655 41.8809 697.068 39.8708 697.251 37.7872L694.098 37.5114C693.937 39.357 693.571 41.1338 693.027 42.8223L696.039 43.7936ZM713.702 67.2047C714.766 55.0408 706.515 44.2126 694.859 41.7595L694.207 44.8564C704.315 46.9838 711.472 56.3792 710.549 66.9289L713.702 67.2047ZM687.832 88.9121C700.97 90.0615 712.552 80.3428 713.702 67.2047L710.549 66.9289C709.552 78.3258 699.504 86.7565 688.108 85.7594L687.832 88.9121ZM585.655 79.9728L687.832 88.9121L688.108 85.7594L585.931 76.8201L585.655 79.9728ZM563.948 54.103C562.799 67.2411 572.517 78.8234 585.655 79.9728L585.931 76.8201C574.534 75.823 566.104 65.7757 567.101 54.3788L563.948 54.103ZM587.698 32.3034C575.455 32.31 565.035 41.6762 563.948 54.103L567.101 54.3788C568.044 43.6006 577.082 35.4738 587.7 35.4682L587.698 32.3034ZM610.253 16.2778C598.913 15.2857 588.791 22.7857 586.162 33.509L589.236 34.2626C591.499 25.0325 600.216 18.5765 609.977 19.4305L610.253 16.2778ZM626.857 25.8137C623.129 20.5454 617.191 16.8847 610.253 16.2778L609.977 19.4305C615.95 19.953 621.06 23.1002 624.274 27.6419L626.857 25.8137ZM626.679 27.8523C630.633 23.9375 636.213 21.7255 642.185 22.248L642.461 19.0953C635.523 18.4883 629.039 21.0622 624.452 25.6033L626.679 27.8523ZM642.185 22.248C644.112 22.4166 645.947 22.858 647.657 23.53L648.815 20.5846C646.826 19.8028 644.694 19.2906 642.461 19.0953L642.185 22.248ZM672.503 8.29409C661.853 7.36234 652.103 12.6952 646.886 21.2321L649.586 22.8824C654.201 15.331 662.82 10.6237 672.227 11.4468L672.503 8.29409ZM697.251 37.7872C698.561 22.8091 687.481 9.60452 672.503 8.29409L672.227 11.4468C685.464 12.6049 695.256 24.2744 694.098 37.5114L697.251 37.7872Z" fill="black" mask="url(#path-1-inside-1_160_2)"/>
<mask id="path-3-inside-2_160_2" fill="white">
<path fill-rule="evenodd" clip-rule="evenodd" d="M311.948 789.278C311.776 791.242 311.387 793.135 310.806 794.936C321.689 797.226 329.393 807.338 328.4 818.695C327.326 830.962 316.512 840.037 304.244 838.964L202.068 830.025C189.8 828.951 180.726 818.136 181.799 805.869C182.814 794.267 192.543 785.521 203.973 785.514C206.418 775.537 215.838 768.558 226.389 769.482C232.844 770.046 238.369 773.451 241.84 778.356C246.11 774.128 252.142 771.735 258.597 772.299C260.677 772.481 262.661 772.958 264.51 773.685C269.426 765.641 278.61 760.621 288.639 761.499C302.746 762.733 313.182 775.17 311.948 789.278Z"/>
</mask>
<path d="M310.806 794.936L309.3 794.45L308.761 796.123L310.48 796.484L310.806 794.936ZM203.973 785.514L203.974 787.096L205.214 787.096L205.509 785.891L203.973 785.514ZM241.84 778.356L240.548 779.27L241.627 780.794L242.953 779.48L241.84 778.356ZM264.51 773.685L263.931 775.158L265.167 775.643L265.86 774.51L264.51 773.685ZM312.312 795.421C312.929 793.509 313.342 791.499 313.524 789.416L310.371 789.14C310.21 790.985 309.845 792.762 309.3 794.45L312.312 795.421ZM329.976 818.833C331.04 806.669 322.789 795.84 311.132 793.387L310.48 796.484C320.589 798.611 327.746 808.007 326.823 818.557L329.976 818.833ZM304.106 840.54C317.244 841.69 328.827 831.971 329.976 818.833L326.823 818.557C325.826 829.954 315.779 838.385 304.382 837.387L304.106 840.54ZM201.93 831.601L304.106 840.54L304.382 837.387L202.206 828.448L201.93 831.601ZM180.223 805.731C179.073 818.869 188.792 830.452 201.93 831.601L202.206 828.448C190.809 827.451 182.378 817.404 183.375 806.007L180.223 805.731ZM203.972 783.932C191.729 783.939 181.31 793.305 180.223 805.731L183.375 806.007C184.318 795.229 193.356 787.102 203.974 787.096L203.972 783.932ZM226.526 767.905C215.186 766.913 205.064 774.413 202.436 785.137L205.509 785.891C207.772 776.66 216.49 770.204 226.251 771.058L226.526 767.905ZM243.132 777.442C239.403 772.173 233.465 768.512 226.526 767.905L226.251 771.058C232.223 771.58 237.334 774.728 240.548 779.27L243.132 777.442ZM242.953 779.48C246.907 775.565 252.487 773.353 258.46 773.876L258.735 770.723C251.797 770.116 245.313 772.69 240.727 777.232L242.953 779.48ZM258.46 773.876C260.387 774.044 262.222 774.486 263.931 775.158L265.088 772.212C263.1 771.431 260.968 770.918 258.735 770.723L258.46 773.876ZM288.776 759.922C278.127 758.991 268.377 764.323 263.159 772.86L265.86 774.51C270.475 766.959 279.093 762.252 288.501 763.075L288.776 759.922ZM313.524 789.416C314.835 774.437 303.755 761.233 288.776 759.922L288.501 763.075C301.738 764.233 311.53 775.903 310.371 789.14L313.524 789.416Z" fill="black" mask="url(#path-3-inside-2_160_2)"/>
<mask id="path-5-inside-3_160_2" fill="white">
<path fill-rule="evenodd" clip-rule="evenodd" d="M1319.13 764.751C1318.96 766.715 1318.57 768.609 1317.99 770.409C1328.87 772.7 1336.57 782.811 1335.58 794.168C1334.51 806.436 1323.69 815.51 1311.42 814.437L1209.25 805.498C1196.98 804.425 1187.91 793.61 1188.98 781.342C1189.99 769.739 1199.72 760.993 1211.16 760.987C1213.6 751.01 1223.02 744.032 1233.57 744.955C1240.03 745.52 1245.55 748.924 1249.02 753.828C1253.29 749.601 1259.32 747.208 1265.78 747.773C1267.86 747.955 1269.84 748.432 1271.69 749.159C1276.61 741.115 1285.79 736.095 1295.82 736.972C1309.93 738.206 1320.36 750.643 1319.13 764.751Z"/>
</mask>
<path d="M1317.99 770.409L1316.48 769.924L1315.94 771.596L1317.66 771.958L1317.99 770.409ZM1211.16 760.987L1211.16 762.57L1212.4 762.569L1212.69 761.364L1211.16 760.987ZM1249.02 753.828L1247.73 754.743L1248.81 756.266L1250.14 754.953L1249.02 753.828ZM1271.69 749.159L1271.11 750.632L1272.35 751.117L1273.04 749.984L1271.69 749.159ZM1319.49 770.895C1320.11 768.982 1320.52 766.972 1320.71 764.889L1317.55 764.613C1317.39 766.459 1317.03 768.235 1316.48 769.924L1319.49 770.895ZM1337.16 794.306C1338.22 782.142 1329.97 771.314 1318.31 768.861L1317.66 771.958C1327.77 774.085 1334.93 783.481 1334 794.03L1337.16 794.306ZM1311.29 816.013C1324.42 817.163 1336.01 807.444 1337.16 794.306L1334 794.03C1333.01 805.427 1322.96 813.858 1311.56 812.861L1311.29 816.013ZM1209.11 807.074L1311.29 816.013L1311.56 812.861L1209.39 803.921L1209.11 807.074ZM1187.4 781.204C1186.25 794.342 1195.97 805.925 1209.11 807.074L1209.39 803.921C1197.99 802.924 1189.56 792.877 1190.56 781.48L1187.4 781.204ZM1211.15 759.405C1198.91 759.411 1188.49 768.777 1187.4 781.204L1190.56 781.48C1191.5 770.702 1200.54 762.575 1211.16 762.57L1211.15 759.405ZM1233.71 743.379C1222.37 742.386 1212.25 749.887 1209.62 760.61L1212.69 761.364C1214.95 752.134 1223.67 745.677 1233.43 746.531L1233.71 743.379ZM1250.31 752.914C1246.59 747.646 1240.65 743.986 1233.71 743.379L1233.43 746.531C1239.41 747.054 1244.52 750.201 1247.73 754.743L1250.31 752.914ZM1250.14 754.953C1254.09 751.039 1259.67 748.827 1265.64 749.35L1265.92 746.197C1258.98 745.59 1252.49 748.163 1247.91 752.704L1250.14 754.953ZM1265.64 749.35C1267.57 749.518 1269.4 749.96 1271.11 750.632L1272.27 747.686C1270.28 746.904 1268.15 746.392 1265.92 746.197L1265.64 749.35ZM1295.96 735.396C1285.31 734.464 1275.56 739.797 1270.34 748.334L1273.04 749.984C1277.66 742.433 1286.27 737.725 1295.68 738.548L1295.96 735.396ZM1320.71 764.889C1322.02 749.911 1310.94 736.706 1295.96 735.396L1295.68 738.548C1308.92 739.706 1318.71 751.376 1317.55 764.613L1320.71 764.889Z" fill="black" mask="url(#path-5-inside-3_160_2)"/>
<mask id="path-7-inside-4_160_2" fill="white">
<path fill-rule="evenodd" clip-rule="evenodd" d="M829.385 264.721C829.213 266.685 828.824 268.579 828.244 270.379C839.127 272.669 846.831 282.781 845.837 294.138C844.764 306.406 833.949 315.48 821.682 314.407L719.505 305.468C707.238 304.394 698.163 293.58 699.236 281.312C700.252 269.71 709.981 260.963 721.411 260.957C723.857 250.98 733.277 244.003 743.827 244.926C750.282 245.49 755.807 248.894 759.278 253.799C763.548 249.571 769.58 247.178 776.035 247.743C778.115 247.925 780.098 248.402 781.947 249.128C786.863 241.085 796.048 236.065 806.076 236.942C820.184 238.176 830.62 250.613 829.385 264.721Z"/>
</mask>
<path d="M828.244 270.379L826.738 269.893L826.199 271.566L827.918 271.927L828.244 270.379ZM721.411 260.957L721.412 262.539L722.653 262.539L722.948 261.334L721.411 260.957ZM759.278 253.799L757.986 254.713L759.064 256.237L760.391 254.924L759.278 253.799ZM781.947 249.128L781.368 250.601L782.605 251.087L783.297 249.954L781.947 249.128ZM829.75 270.865C830.367 268.952 830.779 266.942 830.962 264.859L827.809 264.583C827.648 266.429 827.282 268.205 826.738 269.893L829.75 270.865ZM847.414 294.276C848.478 282.112 840.227 271.283 828.57 268.831L827.918 271.927C838.027 274.055 845.184 283.45 844.261 294L847.414 294.276ZM821.544 315.983C834.682 317.133 846.264 307.414 847.414 294.276L844.261 294C843.264 305.397 833.216 313.828 821.82 312.831L821.544 315.983ZM719.367 307.044L821.544 315.983L821.82 312.831L719.643 303.891L719.367 307.044ZM697.66 281.174C696.511 294.312 706.229 305.895 719.367 307.044L719.643 303.891C708.246 302.894 699.816 292.847 700.813 281.45L697.66 281.174ZM721.41 259.375C709.167 259.381 698.747 268.747 697.66 281.174L700.813 281.45C701.756 270.672 710.794 262.545 721.412 262.539L721.41 259.375ZM743.965 243.349C732.625 242.357 722.504 249.857 719.874 260.58L722.948 261.334C725.211 252.104 733.928 245.648 743.689 246.502L743.965 243.349ZM760.569 252.885C756.841 247.617 750.903 243.956 743.965 243.349L743.689 246.502C749.662 247.024 754.772 250.172 757.986 254.713L760.569 252.885ZM760.391 254.924C764.345 251.009 769.925 248.797 775.897 249.319L776.173 246.167C769.235 245.56 762.751 248.134 758.164 252.675L760.391 254.924ZM775.897 249.319C777.824 249.488 779.659 249.929 781.368 250.601L782.526 247.656C780.537 246.874 778.405 246.362 776.173 246.167L775.897 249.319ZM806.214 235.366C795.564 234.434 785.814 239.767 780.597 248.303L783.297 249.954C787.912 242.403 796.531 237.695 805.938 238.518L806.214 235.366ZM830.962 264.859C832.272 249.881 821.192 236.676 806.214 235.366L805.938 238.518C819.175 239.677 828.967 251.346 827.809 264.583L830.962 264.859Z" fill="black" mask="url(#path-7-inside-4_160_2)"/>
<mask id="path-9-inside-5_160_2" fill="white">
<path fill-rule="evenodd" clip-rule="evenodd" d="M381.581 52.3875C384.41 41.8307 393.583 33.666 405.101 32.6583C416.775 31.6369 427.353 38.274 431.874 48.4071C434.468 46.6371 437.54 45.4885 440.891 45.1953C450.981 44.3125 459.916 51.5072 461.309 61.422C472.643 61.5404 482.253 70.2486 483.262 81.7759C484.335 94.0434 475.26 104.858 462.993 105.931L360.817 114.871C348.549 115.944 337.734 106.869 336.661 94.6018C335.607 82.5505 344.346 71.9011 356.285 70.512C357.488 60.8083 365.328 52.9248 375.461 52.0383C377.561 51.8546 379.617 51.9839 381.581 52.3875Z"/>
</mask>
<path d="M381.581 52.3875L381.262 53.9375L382.723 54.2377L383.109 52.7971L381.581 52.3875ZM431.874 48.4071L430.429 49.0518L431.201 50.7819L432.766 49.7142L431.874 48.4071ZM461.309 61.422L459.742 61.6423L459.931 62.9901L461.292 63.0043L461.309 61.422ZM356.285 70.512L356.467 72.0838L357.702 71.9402L357.855 70.7067L356.285 70.512ZM383.109 52.7971C385.771 42.8623 394.404 35.1825 405.239 34.2346L404.963 31.0819C392.761 32.1495 383.048 40.7992 380.052 51.9779L383.109 52.7971ZM405.239 34.2346C416.22 33.2739 426.175 39.5161 430.429 49.0518L433.319 47.7624C428.532 37.032 417.33 29.9999 404.963 31.0819L405.239 34.2346ZM432.766 49.7142C435.142 48.0931 437.955 47.0406 441.029 46.7717L440.753 43.619C437.124 43.9364 433.795 45.181 430.982 47.0999L432.766 49.7142ZM441.029 46.7717C450.276 45.9626 458.465 52.5565 459.742 61.6423L462.876 61.2018C461.366 50.4578 451.686 42.6624 440.753 43.619L441.029 46.7717ZM461.292 63.0043C471.821 63.1143 480.749 71.2055 481.685 81.9138L484.838 81.638C483.758 69.2917 473.466 59.9665 461.326 59.8398L461.292 63.0043ZM481.685 81.9138C482.683 93.3107 474.252 103.358 462.855 104.355L463.131 107.508C476.269 106.358 485.988 94.7761 484.838 81.638L481.685 81.9138ZM462.855 104.355L360.679 113.294L360.955 116.447L463.131 107.508L462.855 104.355ZM360.679 113.294C349.282 114.292 339.234 105.861 338.237 94.4639L335.085 94.7398C336.234 107.878 347.816 117.597 360.955 116.447L360.679 113.294ZM338.237 94.4639C337.258 83.2681 345.377 73.3741 356.467 72.0838L356.102 68.9403C343.315 70.428 333.955 81.8329 335.085 94.7398L338.237 94.4639ZM357.855 70.7067C358.968 61.7284 366.225 54.4348 375.599 53.6146L375.324 50.4619C364.431 51.4149 356.007 59.8882 354.714 70.3173L357.855 70.7067ZM375.599 53.6146C377.545 53.4444 379.447 53.5644 381.262 53.9375L381.899 50.8375C379.787 50.4034 377.578 50.2647 375.324 50.4619L375.599 53.6146Z" fill="black" mask="url(#path-9-inside-5_160_2)"/>
<mask id="path-11-inside-6_160_2" fill="white">
<path fill-rule="evenodd" clip-rule="evenodd" d="M-1.35339 738.346C1.47589 727.79 10.6485 719.626 22.1665 718.618C33.8409 717.597 44.4189 724.234 48.9397 734.367C51.5342 732.597 54.6056 731.448 57.9573 731.155C68.048 730.272 76.9824 737.467 78.3755 747.382C89.7089 747.502 99.3179 756.209 100.326 767.736C101.4 780.004 92.3249 790.818 80.0574 791.892L-22.1189 800.831C-34.3864 801.904 -45.2012 792.829 -46.2745 780.562C-47.3289 768.51 -38.5883 757.86 -26.6482 756.472C-25.4454 746.768 -17.605 738.884 -7.47118 737.997C-5.37178 737.813 -3.31718 737.942 -1.35339 738.346Z"/>
</mask>
<path d="M-1.35339 738.346L-1.67178 739.896L-0.211021 740.196L0.175042 738.756L-1.35339 738.346ZM48.9397 734.367L47.4946 735.012L48.2665 736.742L49.8315 735.674L48.9397 734.367ZM78.3755 747.382L76.8085 747.602L76.9979 748.95L78.3588 748.964L78.3755 747.382ZM-26.6482 756.472L-26.4655 758.044L-25.2307 757.9L-25.0778 756.666L-26.6482 756.472ZM0.175042 738.756C2.83763 728.821 11.47 721.142 22.3044 720.194L22.0286 717.042C9.8269 718.109 0.114149 726.758 -2.88181 737.936L0.175042 738.756ZM22.3044 720.194C33.2859 719.233 43.2403 725.476 47.4946 735.012L50.3847 733.722C45.5975 722.992 34.3958 715.96 22.0286 717.042L22.3044 720.194ZM49.8315 735.674C52.2078 734.053 55.0206 733 58.0952 732.731L57.8194 729.578C54.1905 729.896 50.8607 731.141 48.0478 733.06L49.8315 735.674ZM58.0952 732.731C67.343 731.922 75.532 738.516 76.8085 747.602L79.9425 747.162C78.4329 736.418 68.7531 728.622 57.8194 729.578L58.0952 732.731ZM78.3588 748.964C88.8862 749.075 97.8131 757.166 98.7499 767.874L101.903 767.598C100.823 755.253 90.5316 745.928 78.3922 745.8L78.3588 748.964ZM98.7499 767.874C99.747 779.271 91.3164 789.318 79.9195 790.315L80.1953 793.468C93.3334 792.319 103.052 780.736 101.903 767.598L98.7499 767.874ZM79.9195 790.315L-22.2568 799.255L-21.981 802.407L80.1953 793.468L79.9195 790.315ZM-22.2568 799.255C-33.6537 800.252 -43.701 791.821 -44.6981 780.424L-47.8508 780.7C-46.7014 793.838 -35.119 803.557 -21.981 802.407L-22.2568 799.255ZM-44.6981 780.424C-45.6777 769.227 -37.5574 759.333 -26.4655 758.044L-26.8308 754.9C-39.6192 756.386 -48.9801 767.792 -47.8508 780.7L-44.6981 780.424ZM-25.0778 756.666C-23.965 747.688 -16.7082 740.394 -7.33326 739.573L-7.60909 736.421C-18.5018 737.374 -26.9259 745.848 -28.2185 756.277L-25.0778 756.666ZM-7.33326 739.573C-5.38807 739.403 -3.48715 739.523 -1.67178 739.896L-1.03499 736.796C-3.14721 736.362 -5.3555 736.223 -7.60909 736.421L-7.33326 739.573Z" fill="black" mask="url(#path-11-inside-6_160_2)"/>
<mask id="path-13-inside-7_160_2" fill="white">
<path fill-rule="evenodd" clip-rule="evenodd" d="M1025.27 709.839C1027.86 708.069 1030.93 706.92 1034.28 706.627C1044.37 705.744 1053.31 712.939 1054.7 722.855C1066.03 722.974 1075.64 731.682 1076.65 743.209C1077.73 755.476 1068.65 766.291 1056.38 767.364L954.207 776.304C941.94 777.377 931.125 768.302 930.052 756.035C928.997 743.983 937.737 733.333 949.677 731.945C950.88 722.241 958.721 714.357 968.854 713.471C970.954 713.287 973.009 713.416 974.972 713.82C977.801 703.263 986.974 695.098 998.493 694.091C1010.17 693.069 1020.74 699.706 1025.27 709.839Z"/>
</mask>
<path d="M1025.27 709.839L1023.82 710.484L1024.59 712.214L1026.16 711.146L1025.27 709.839ZM1054.7 722.855L1053.13 723.075L1053.32 724.423L1054.68 724.437L1054.7 722.855ZM949.677 731.945L949.86 733.516L951.095 733.373L951.248 732.139L949.677 731.945ZM974.972 713.82L974.654 715.37L976.115 715.67L976.501 714.229L974.972 713.82ZM1026.16 711.146C1028.53 709.525 1031.35 708.472 1034.42 708.203L1034.14 705.051C1030.52 705.368 1027.19 706.613 1024.37 708.532L1026.16 711.146ZM1034.42 708.203C1043.67 707.394 1051.86 713.989 1053.13 723.075L1056.27 722.635C1054.76 711.89 1045.08 704.094 1034.14 705.051L1034.42 708.203ZM1054.68 724.437C1065.21 724.548 1074.14 732.639 1075.08 743.347L1078.23 743.071C1077.15 730.725 1066.86 721.4 1054.72 721.273L1054.68 724.437ZM1075.08 743.347C1076.07 754.743 1067.64 764.791 1056.25 765.788L1056.52 768.941C1069.66 767.791 1079.38 756.209 1078.23 743.071L1075.08 743.347ZM1056.25 765.788L954.069 774.727L954.345 777.88L1056.52 768.941L1056.25 765.788ZM954.069 774.727C942.672 775.724 932.625 767.294 931.628 755.897L928.475 756.173C929.625 769.311 941.207 779.029 954.345 777.88L954.069 774.727ZM931.628 755.897C930.649 744.7 938.768 734.806 949.86 733.516L949.494 730.373C936.707 731.86 927.346 743.265 928.475 756.173L931.628 755.897ZM951.248 732.139C952.361 723.161 959.617 715.867 968.992 715.047L968.716 711.894C957.824 712.847 949.4 721.321 948.107 731.75L951.248 732.139ZM968.992 715.047C970.937 714.877 972.838 714.997 974.654 715.37L975.291 712.27C973.179 711.836 970.97 711.697 968.716 711.894L968.992 715.047ZM976.501 714.229C979.163 704.294 987.796 696.615 998.631 695.667L998.355 692.514C986.153 693.582 976.44 702.231 973.444 713.41L976.501 714.229ZM998.631 695.667C1009.61 694.706 1019.57 700.948 1023.82 710.484L1026.71 709.194C1021.92 698.464 1010.72 691.432 998.355 692.514L998.631 695.667Z" fill="black" mask="url(#path-13-inside-7_160_2)"/>
<mask id="path-15-inside-8_160_2" fill="white">
<path fill-rule="evenodd" clip-rule="evenodd" d="M883.642 62.6478C886.237 60.8777 889.308 59.7291 892.659 59.4359C902.75 58.5531 911.685 65.7483 913.078 75.6638C924.411 75.7832 934.02 84.4911 935.028 96.0177C936.102 108.285 927.027 119.1 914.76 120.173L812.583 129.113C800.316 130.186 789.501 121.111 788.428 108.844C787.373 96.7913 796.114 86.1411 808.054 84.7535C809.257 75.0496 817.097 67.1659 827.231 66.2793C829.331 66.0956 831.385 66.2249 833.349 66.6284C836.178 56.0717 845.351 47.907 856.87 46.8993C868.544 45.878 879.122 52.5149 883.642 62.6478Z"/>
</mask>
<path d="M883.642 62.6478L882.197 63.2925L882.969 65.0226L884.534 63.9549L883.642 62.6478ZM913.078 75.6638L911.511 75.8839L911.7 77.2318L913.061 77.2461L913.078 75.6638ZM914.76 120.173L914.897 121.75L914.76 120.173ZM812.583 129.113L812.445 127.536L812.583 129.113ZM808.054 84.7535L808.237 86.3253L809.471 86.1818L809.624 84.9481L808.054 84.7535ZM833.349 66.6284L833.031 68.1784L834.492 68.4785L834.878 67.0379L833.349 66.6284ZM884.534 63.9549C886.91 62.3337 889.723 61.2812 892.797 61.0122L892.522 57.8595C888.893 58.177 885.563 59.4217 882.751 61.3406L884.534 63.9549ZM892.797 61.0122C902.045 60.2032 910.234 66.7976 911.511 75.8839L914.645 75.4437C913.135 64.699 903.455 56.9029 892.522 57.8595L892.797 61.0122ZM913.061 77.2461C923.588 77.357 932.515 85.4479 933.452 96.1556L936.605 95.8798C935.525 83.5342 925.234 74.2094 913.094 74.0815L913.061 77.2461ZM933.452 96.1556C934.449 107.552 926.019 117.6 914.622 118.597L914.897 121.75C928.036 120.6 937.754 109.018 936.605 95.8798L933.452 96.1556ZM914.622 118.597L812.445 127.536L812.721 130.689L914.897 121.75L914.622 118.597ZM812.445 127.536C801.048 128.533 791.001 120.103 790.004 108.706L786.851 108.982C788.001 122.12 799.583 131.838 812.721 130.689L812.445 127.536ZM790.004 108.706C789.024 97.509 797.145 87.6143 808.237 86.3253L807.871 83.1817C795.083 84.6679 785.722 96.0736 786.851 108.982L790.004 108.706ZM809.624 84.9481C810.738 75.9697 817.994 68.6759 827.369 67.8557L827.093 64.703C816.201 65.6559 807.777 74.1295 806.484 84.5588L809.624 84.9481ZM827.369 67.8557C829.314 67.6855 831.215 67.8054 833.031 68.1784L833.668 65.0784C831.555 64.6444 829.347 64.5058 827.093 64.703L827.369 67.8557ZM834.878 67.0379C837.54 57.1032 846.173 49.4236 857.008 48.4757L856.732 45.323C844.53 46.3905 834.817 55.0402 831.821 66.2188L834.878 67.0379ZM857.008 48.4757C867.989 47.5149 877.943 53.757 882.197 63.2925L885.088 62.003C880.3 51.2729 869.099 44.241 856.732 45.323L857.008 48.4757Z" fill="black" mask="url(#path-15-inside-8_160_2)"/>
<mask id="path-17-inside-9_160_2" fill="white">
<path fill-rule="evenodd" clip-rule="evenodd" d="M467.031 716.983C469.86 706.427 479.033 698.262 490.551 697.255C502.225 696.233 512.803 702.87 517.324 713.003C519.919 711.233 522.99 710.085 526.341 709.792C536.432 708.909 545.366 716.103 546.759 726.018C558.093 726.138 567.702 734.846 568.71 746.372C569.783 758.64 560.709 769.454 548.441 770.528L446.265 779.467C433.997 780.54 423.183 771.466 422.109 759.198C421.055 747.146 429.796 736.496 441.736 735.108C442.939 725.404 450.779 717.521 460.913 716.634C463.012 716.451 465.067 716.58 467.031 716.983Z"/>
</mask>
<path d="M467.031 716.983L466.713 718.533L468.173 718.834L468.56 717.393L467.031 716.983ZM517.324 713.003L515.879 713.648L516.651 715.378L518.216 714.31L517.324 713.003ZM546.759 726.018L545.192 726.239L545.382 727.586L546.742 727.601L546.759 726.018ZM548.441 770.528L548.579 772.104L548.441 770.528ZM446.265 779.467L446.127 777.891L446.265 779.467ZM441.736 735.108L441.918 736.68L443.153 736.536L443.306 735.303L441.736 735.108ZM468.56 717.393C471.222 707.458 479.854 699.779 490.689 698.831L490.413 695.678C478.211 696.746 468.498 705.395 465.503 716.574L468.56 717.393ZM490.689 698.831C501.671 697.87 511.625 704.112 515.879 713.648L518.769 712.359C513.982 701.628 502.78 694.596 490.413 695.678L490.689 698.831ZM518.216 714.31C520.592 712.689 523.405 711.637 526.479 711.368L526.203 708.215C522.575 708.533 519.245 709.777 516.432 711.696L518.216 714.31ZM526.479 711.368C535.726 710.559 543.915 717.153 545.192 726.239L548.326 725.798C546.816 715.054 537.137 707.259 526.203 708.215L526.479 711.368ZM546.742 727.601C557.27 727.711 566.197 735.802 567.134 746.51L570.286 746.234C569.206 733.889 558.915 724.564 546.776 724.436L546.742 727.601ZM567.134 746.51C568.131 757.907 559.7 767.954 548.303 768.951L548.579 772.104C561.717 770.955 571.436 759.372 570.286 746.234L567.134 746.51ZM548.303 768.951L446.127 777.891L446.403 781.043L548.579 772.104L548.303 768.951ZM446.127 777.891C434.73 778.888 424.683 770.457 423.686 759.06L420.533 759.336C421.682 772.474 433.265 782.193 446.403 781.043L446.127 777.891ZM423.686 759.06C422.706 747.863 430.826 737.969 441.918 736.68L441.553 733.536C428.765 735.022 419.404 746.428 420.533 759.336L423.686 759.06ZM443.306 735.303C444.419 726.324 451.676 719.031 461.05 718.211L460.775 715.058C449.882 716.011 441.459 724.484 440.165 734.913L443.306 735.303ZM461.05 718.211C462.996 718.04 464.897 718.16 466.713 718.533L467.35 715.433C465.237 714.999 463.029 714.861 460.775 715.058L461.05 718.211Z" fill="black" mask="url(#path-17-inside-9_160_2)"/>
<mask id="path-19-inside-10_160_2" fill="white">
<path fill-rule="evenodd" clip-rule="evenodd" d="M1452.06 735.182C1454.89 724.625 1464.06 716.46 1475.58 715.453C1487.25 714.431 1497.83 721.068 1502.35 731.2C1504.94 729.43 1508.02 728.282 1511.37 727.989C1521.46 727.106 1530.39 734.301 1531.78 744.216C1543.12 744.335 1552.73 753.043 1553.74 764.57C1554.81 776.837 1545.73 787.652 1533.47 788.726L1431.29 797.665C1419.02 798.738 1408.21 789.663 1407.14 777.396C1406.08 765.344 1414.82 754.694 1426.76 753.306C1427.96 743.602 1435.8 735.719 1445.94 734.832C1448.04 734.649 1450.09 734.778 1452.06 735.182Z"/>
</mask>
<path d="M1452.06 735.182L1451.74 736.732L1453.2 737.032L1453.59 735.591L1452.06 735.182ZM1502.35 731.2L1500.91 731.845L1501.68 733.575L1503.24 732.507L1502.35 731.2ZM1531.78 744.216L1530.22 744.436L1530.41 745.784L1531.77 745.798L1531.78 744.216ZM1426.76 753.306L1426.94 754.878L1428.18 754.734L1428.33 753.501L1426.76 753.306ZM1453.59 735.591C1456.25 725.656 1464.88 717.977 1475.72 717.029L1475.44 713.876C1463.24 714.944 1453.52 723.593 1450.53 734.772L1453.59 735.591ZM1475.72 717.029C1486.7 716.068 1496.65 722.31 1500.91 731.845L1503.8 730.556C1499.01 719.826 1487.81 712.794 1475.44 713.876L1475.72 717.029ZM1503.24 732.507C1505.62 730.887 1508.43 729.834 1511.5 729.565L1511.23 726.413C1507.6 726.73 1504.27 727.974 1501.46 729.893L1503.24 732.507ZM1511.5 729.565C1520.75 728.756 1528.94 735.35 1530.22 744.436L1533.35 743.996C1531.84 733.252 1522.16 725.456 1511.23 726.413L1511.5 729.565ZM1531.77 745.798C1542.3 745.909 1551.22 754 1552.16 764.708L1555.31 764.432C1554.23 752.086 1543.94 742.761 1531.8 742.634L1531.77 745.798ZM1552.16 764.708C1553.16 776.105 1544.73 786.152 1533.33 787.149L1533.61 790.302C1546.74 789.152 1556.46 777.57 1555.31 764.432L1552.16 764.708ZM1533.33 787.149L1431.15 796.088L1431.43 799.241L1533.61 790.302L1533.33 787.149ZM1431.15 796.088C1419.76 797.086 1409.71 788.655 1408.71 777.258L1405.56 777.534C1406.71 790.672 1418.29 800.391 1431.43 799.241L1431.15 796.088ZM1408.71 777.258C1407.73 766.062 1415.85 756.167 1426.94 754.878L1426.58 751.734C1413.79 753.221 1404.43 764.626 1405.56 777.534L1408.71 777.258ZM1428.33 753.501C1429.44 744.522 1436.7 737.229 1446.08 736.409L1445.8 733.256C1434.91 734.209 1426.48 742.682 1425.19 753.111L1428.33 753.501ZM1446.08 736.409C1448.02 736.238 1449.92 736.358 1451.74 736.732L1452.38 733.632C1450.26 733.197 1448.05 733.059 1445.8 733.256L1446.08 736.409Z" fill="black" mask="url(#path-19-inside-10_160_2)"/>
<mask id="path-21-inside-11_160_2" fill="white">
<path fill-rule="evenodd" clip-rule="evenodd" d="M1169.7 58.5719C1169.81 57.8427 1169.9 57.1042 1169.97 56.3572C1171.47 39.1827 1158.77 24.042 1141.59 22.5394C1130.62 21.5794 1120.47 26.4194 1114.19 34.5195C1110.22 30.7765 1105.02 28.2932 1099.16 27.7812C1085.55 26.59 1073.53 36.5101 1072.04 50.0286L1067.6 49.6395C1055.33 48.5662 1044.51 57.6409 1043.44 69.9084C1042.37 82.1758 1051.44 92.9907 1063.71 94.0639L1165.89 103.003C1178.15 104.076 1188.97 95.0018 1190.04 82.7343C1191.12 70.4668 1182.04 59.652 1169.77 58.5787L1169.7 58.5719Z"/>
</mask>
<path d="M1169.7 58.5719L1168.13 58.3234L1167.87 60.0003L1169.56 60.1483L1169.7 58.5719ZM1114.19 34.5195L1113.1 35.67L1114.37 36.867L1115.44 35.4896L1114.19 34.5195ZM1072.04 50.0286L1071.91 51.6049L1073.45 51.7399L1073.62 50.2008L1072.04 50.0286ZM1169.77 58.5787L1169.91 57.0024L1169.77 58.5787ZM1168.39 56.2193C1168.33 56.9292 1168.24 57.6308 1168.13 58.3234L1171.26 58.8205C1171.38 58.0546 1171.48 57.2791 1171.54 56.4951L1168.39 56.2193ZM1141.45 24.1158C1157.76 25.5422 1169.82 39.9154 1168.39 56.2193L1171.54 56.4951C1173.12 38.45 1159.77 22.5418 1141.73 20.9631L1141.45 24.1158ZM1115.44 35.4896C1121.41 27.7963 1131.04 23.2045 1141.45 24.1158L1141.73 20.9631C1130.2 19.9542 1119.54 25.0425 1112.94 33.5494L1115.44 35.4896ZM1099.03 29.3575C1104.51 29.8374 1109.39 32.1629 1113.1 35.67L1115.28 33.369C1111.06 29.39 1105.52 26.749 1099.3 26.2048L1099.03 29.3575ZM1073.62 50.2008C1075 37.5359 1086.27 28.2415 1099.03 29.3575L1099.3 26.2048C1084.83 24.9385 1072.05 35.4844 1070.47 49.8563L1073.62 50.2008ZM1067.46 51.2158L1071.91 51.6049L1072.18 48.4522L1067.73 48.0631L1067.46 51.2158ZM1045.02 70.0463C1046.01 58.6494 1056.06 50.2187 1067.46 51.2158L1067.73 48.0631C1054.6 46.9137 1043.01 56.6324 1041.87 69.7705L1045.02 70.0463ZM1063.85 92.4876C1052.45 91.4905 1044.02 81.4432 1045.02 70.0463L1041.87 69.7705C1040.72 82.9085 1050.43 94.4909 1063.57 95.6403L1063.85 92.4876ZM1166.02 101.427L1063.85 92.4876L1063.57 95.6403L1165.75 104.58L1166.02 101.427ZM1188.47 82.5964C1187.47 93.9932 1177.42 102.424 1166.02 101.427L1165.75 104.58C1178.89 105.729 1190.47 96.0103 1191.62 82.8722L1188.47 82.5964ZM1169.64 60.1551C1181.03 61.1522 1189.46 71.1995 1188.47 82.5964L1191.62 82.8722C1192.77 69.7341 1183.05 58.1518 1169.91 57.0024L1169.64 60.1551ZM1169.56 60.1483L1169.64 60.1551L1169.91 57.0024L1169.83 56.9956L1169.56 60.1483Z" fill="black" mask="url(#path-21-inside-11_160_2)"/>
<mask id="path-23-inside-12_160_2" fill="white">
<path fill-rule="evenodd" clip-rule="evenodd" d="M782.013 772.222C782.129 771.493 782.22 770.755 782.286 770.008C783.788 752.833 771.083 737.693 753.909 736.19C742.936 735.23 732.793 740.07 726.507 748.17C722.543 744.426 717.335 741.943 711.482 741.431C697.867 740.24 685.842 750.16 684.362 763.679L679.913 763.29C667.646 762.216 656.831 771.291 655.758 783.559C654.685 795.826 663.759 806.641 676.027 807.714L778.203 816.653C790.471 817.727 801.285 808.652 802.359 796.385C803.432 784.117 794.357 773.302 782.09 772.229L782.013 772.222Z"/>
</mask>
<path d="M782.013 772.222L780.45 771.974L780.184 773.651L781.875 773.799L782.013 772.222ZM726.507 748.17L725.42 749.32L726.688 750.517L727.757 749.14L726.507 748.17ZM684.362 763.679L684.224 765.255L685.766 765.39L685.935 763.851L684.362 763.679ZM679.913 763.29L679.776 764.866L679.913 763.29ZM676.027 807.714L676.165 806.138L676.027 807.714ZM778.203 816.653L778.065 818.23L778.203 816.653ZM780.709 769.87C780.647 770.58 780.56 771.281 780.45 771.974L783.576 772.471C783.698 771.705 783.793 770.93 783.862 770.146L780.709 769.87ZM753.771 737.766C770.075 739.193 782.136 753.566 780.709 769.87L783.862 770.146C785.441 752.101 772.092 736.193 754.047 734.614L753.771 737.766ZM727.757 749.14C733.727 741.447 743.356 736.855 753.771 737.766L754.047 734.614C742.516 733.605 731.858 738.693 725.257 747.2L727.757 749.14ZM711.344 743.007C716.83 743.487 721.706 745.813 725.42 749.32L727.593 747.019C723.379 743.04 717.841 740.399 711.62 739.855L711.344 743.007ZM685.935 763.851C687.322 751.186 698.588 741.891 711.344 743.007L711.62 739.855C697.146 738.588 684.363 749.134 682.789 763.507L685.935 763.851ZM679.776 764.866L684.224 765.255L684.5 762.103L680.051 761.713L679.776 764.866ZM657.334 783.697C658.331 772.3 668.379 763.869 679.776 764.866L680.051 761.713C666.913 760.564 655.331 770.283 654.182 783.421L657.334 783.697ZM676.165 806.138C664.768 805.141 656.337 795.093 657.334 783.697L654.182 783.421C653.032 796.559 662.751 808.141 675.889 809.291L676.165 806.138ZM778.341 815.077L676.165 806.138L675.889 809.291L778.065 818.23L778.341 815.077ZM800.782 796.247C799.785 807.643 789.738 816.074 778.341 815.077L778.065 818.23C791.203 819.379 802.786 809.66 803.935 796.522L800.782 796.247ZM781.952 773.805C793.349 774.802 801.779 784.85 800.782 796.247L803.935 796.522C805.084 783.384 795.366 771.802 782.228 770.653L781.952 773.805ZM781.875 773.799L781.952 773.805L782.228 770.653L782.151 770.646L781.875 773.799Z" fill="black" mask="url(#path-23-inside-12_160_2)"/>
<mask id="path-25-inside-13_160_2" fill="white">
<path fill-rule="evenodd" clip-rule="evenodd" d="M823.764 526.732C823.751 525.994 823.713 525.251 823.647 524.504C822.145 507.33 807.004 494.625 789.83 496.128C778.857 497.088 769.708 503.615 764.924 512.683C760.37 509.685 754.811 508.144 748.958 508.656C735.343 509.847 725.223 521.705 726.113 535.276L721.665 535.665C709.398 536.738 700.323 547.553 701.396 559.82C702.47 572.088 713.284 581.162 725.552 580.089L827.728 571.15C839.996 570.077 849.07 559.262 847.997 546.994C846.924 534.727 836.109 525.652 823.842 526.725L823.764 526.732Z"/>
</mask>
<path d="M823.764 526.732L822.182 526.759L822.21 528.457L823.902 528.309L823.764 526.732ZM764.924 512.683L764.054 514.005L765.51 514.963L766.324 513.422L764.924 512.683ZM726.113 535.276L726.251 536.852L727.793 536.717L727.692 535.172L726.113 535.276ZM721.665 535.665L721.803 537.241L721.665 535.665ZM725.552 580.089L725.414 578.513L725.552 580.089ZM827.728 571.15L827.866 572.726L827.728 571.15ZM822.071 524.642C822.133 525.352 822.17 526.058 822.182 526.759L825.346 526.706C825.333 525.93 825.292 525.15 825.224 524.366L822.071 524.642ZM789.968 497.704C806.271 496.278 820.645 508.338 822.071 524.642L825.224 524.366C823.645 506.321 807.737 492.973 789.692 494.551L789.968 497.704ZM766.324 513.422C770.867 504.809 779.552 498.615 789.968 497.704L789.692 494.551C778.161 495.56 768.549 502.421 763.524 511.945L766.324 513.422ZM749.096 510.232C754.581 509.752 759.787 511.196 764.054 514.005L765.794 511.361C760.953 508.175 755.041 506.535 748.82 507.08L749.096 510.232ZM727.692 535.172C726.858 522.458 736.34 511.348 749.096 510.232L748.82 507.08C734.346 508.346 723.588 520.952 724.534 535.379L727.692 535.172ZM721.803 537.241L726.251 536.852L725.975 533.699L721.527 534.088L721.803 537.241ZM702.973 559.682C701.976 548.285 710.406 538.238 721.803 537.241L721.527 534.088C708.389 535.238 698.671 546.82 699.82 559.958L702.973 559.682ZM725.414 578.513C714.017 579.51 703.97 571.079 702.973 559.682L699.82 559.958C700.969 573.096 712.552 582.815 725.69 581.666L725.414 578.513ZM827.59 569.574L725.414 578.513L725.69 581.666L827.866 572.726L827.59 569.574ZM846.421 547.132C847.418 558.529 838.987 568.576 827.59 569.574L827.866 572.726C841.004 571.577 850.723 559.994 849.574 546.856L846.421 547.132ZM823.98 528.302C835.376 527.305 845.424 535.735 846.421 547.132L849.574 546.856C848.424 533.718 836.842 524 823.704 525.149L823.98 528.302ZM823.902 528.309L823.98 528.302L823.704 525.149L823.626 525.156L823.902 528.309Z" fill="black" mask="url(#path-25-inside-13_160_2)"/>
</svg>
