<svg width="1519" height="1302" viewBox="0 0 1519 1302" fill="none" xmlns="http://www.w3.org/2000/svg">
<g clip-path="url(#clip0_164_203)">
<rect width="1519" height="1302" fill="white"/>
<rect width="1519" height="27.6901" transform="matrix(1 0 0 -1 0 0.120605)" fill="#4A1532"/>
<mask id="path-2-inside-1_164_203" fill="white">
<path fill-rule="evenodd" clip-rule="evenodd" d="M-1.97849 -924.681L1557.32 -924.682L1548.75 -22.7285L-1.97836 -57.1451L-1.97849 -924.681ZM183.685 -722.286L405.053 -730.814L413.581 -509.446L192.213 -500.918L183.685 -722.286ZM1098.8 -757.542L877.437 -749.013L885.965 -527.645L1107.33 -536.174L1098.8 -757.542ZM193.966 -455.457L415.334 -463.986L423.862 -242.618L202.494 -234.089L193.966 -455.457ZM1109.09 -490.714L887.718 -482.185L896.246 -260.817L1117.61 -269.346L1109.09 -490.714ZM450.514 -732.565L671.882 -741.094L680.41 -519.726L459.042 -511.197L450.514 -732.565ZM1365.63 -767.822L1144.26 -759.293L1152.79 -537.925L1374.16 -546.454L1365.63 -767.822ZM460.792 -465.737L682.16 -474.266L690.689 -252.898L469.32 -244.369L460.792 -465.737ZM1375.91 -500.993L1154.54 -492.465L1163.07 -271.097L1384.44 -279.625L1375.91 -500.993Z"/>
</mask>
<path d="M1557.32 -924.682L1558.91 -924.667L1558.92 -926.264L1557.32 -926.264L1557.32 -924.682ZM-1.97849 -924.681L-1.97849 -926.264L-3.56086 -926.264L-3.56086 -924.681L-1.97849 -924.681ZM1548.75 -22.7285L1548.71 -21.1465L1550.32 -21.1109L1550.33 -22.7134L1548.75 -22.7285ZM-1.97836 -57.1451L-3.56074 -57.1451L-3.56074 -55.5975L-2.01347 -55.5631L-1.97836 -57.1451ZM405.053 -730.814L406.634 -730.875L406.573 -732.456L404.992 -732.396L405.053 -730.814ZM183.685 -722.286L183.624 -723.867L182.042 -723.806L182.103 -722.225L183.685 -722.286ZM413.581 -509.446L413.642 -507.865L415.223 -507.926L415.162 -509.507L413.581 -509.446ZM192.213 -500.918L190.632 -500.857L190.693 -499.276L192.274 -499.337L192.213 -500.918ZM877.437 -749.013L877.376 -750.594L875.794 -750.533L875.855 -748.952L877.437 -749.013ZM1098.8 -757.542L1100.39 -757.603L1100.32 -759.184L1098.74 -759.123L1098.8 -757.542ZM885.965 -527.645L884.384 -527.584L884.445 -526.003L886.026 -526.064L885.965 -527.645ZM1107.33 -536.174L1107.39 -534.592L1108.98 -534.653L1108.91 -536.234L1107.33 -536.174ZM415.334 -463.986L416.915 -464.047L416.854 -465.628L415.273 -465.567L415.334 -463.986ZM193.966 -455.457L193.905 -457.038L192.324 -456.978L192.385 -455.396L193.966 -455.457ZM423.862 -242.618L423.923 -241.036L425.504 -241.097L425.444 -242.679L423.862 -242.618ZM202.494 -234.089L200.913 -234.028L200.974 -232.447L202.555 -232.508L202.494 -234.089ZM887.718 -482.185L887.657 -483.767L886.076 -483.706L886.137 -482.124L887.718 -482.185ZM1109.09 -490.714L1110.67 -490.775L1110.61 -492.356L1109.02 -492.295L1109.09 -490.714ZM896.246 -260.817L894.665 -260.756L894.726 -259.175L896.307 -259.236L896.246 -260.817ZM1117.61 -269.346L1117.68 -267.764L1119.26 -267.825L1119.2 -269.407L1117.61 -269.346ZM671.882 -741.094L673.463 -741.155L673.402 -742.736L671.821 -742.675L671.882 -741.094ZM450.514 -732.565L450.453 -734.147L448.872 -734.086L448.933 -732.504L450.514 -732.565ZM680.41 -519.726L680.471 -518.145L682.052 -518.205L681.992 -519.787L680.41 -519.726ZM459.042 -511.197L457.461 -511.136L457.522 -509.555L459.103 -509.616L459.042 -511.197ZM1144.26 -759.293L1144.2 -760.875L1142.62 -760.814L1142.68 -759.232L1144.26 -759.293ZM1365.63 -767.822L1367.21 -767.883L1367.15 -769.464L1365.57 -769.403L1365.63 -767.822ZM1152.79 -537.925L1151.21 -537.864L1151.27 -536.283L1152.85 -536.344L1152.79 -537.925ZM1374.16 -546.454L1374.22 -544.873L1375.8 -544.933L1375.74 -546.515L1374.16 -546.454ZM682.16 -474.266L683.741 -474.327L683.68 -475.908L682.099 -475.847L682.16 -474.266ZM460.792 -465.737L460.731 -467.318L459.15 -467.258L459.211 -465.676L460.792 -465.737ZM690.689 -252.898L690.749 -251.316L692.331 -251.377L692.27 -252.959L690.689 -252.898ZM469.32 -244.369L467.739 -244.308L467.8 -242.727L469.381 -242.788L469.32 -244.369ZM1154.54 -492.465L1154.48 -494.046L1152.9 -493.985L1152.96 -492.404L1154.54 -492.465ZM1375.91 -500.993L1377.49 -501.054L1377.43 -502.635L1375.85 -502.575L1375.91 -500.993ZM1163.07 -271.097L1161.49 -271.036L1161.55 -269.455L1163.13 -269.516L1163.07 -271.097ZM1384.44 -279.625L1384.5 -278.044L1386.08 -278.105L1386.02 -279.686L1384.44 -279.625ZM1557.32 -926.264L-1.97849 -926.264L-1.97849 -923.099L1557.32 -923.099L1557.32 -926.264ZM1550.33 -22.7134L1558.91 -924.667L1555.74 -924.697L1547.17 -22.7435L1550.33 -22.7134ZM-2.01347 -55.5631L1548.71 -21.1465L1548.78 -24.3104L-1.94325 -58.7271L-2.01347 -55.5631ZM-3.56086 -924.681L-3.56074 -57.1451L-0.395988 -57.1451L-0.396113 -924.681L-3.56086 -924.681ZM404.992 -732.396L183.624 -723.867L183.746 -720.705L405.114 -729.233L404.992 -732.396ZM415.162 -509.507L406.634 -730.875L403.471 -730.753L412 -509.385L415.162 -509.507ZM192.274 -499.337L413.642 -507.865L413.52 -511.027L192.152 -502.499L192.274 -499.337ZM182.103 -722.225L190.632 -500.857L193.794 -500.979L185.266 -722.347L182.103 -722.225ZM877.497 -747.432L1098.87 -755.96L1098.74 -759.123L877.376 -750.594L877.497 -747.432ZM887.546 -527.706L879.018 -749.074L875.855 -748.952L884.384 -527.584L887.546 -527.706ZM1107.27 -537.755L885.904 -529.226L886.026 -526.064L1107.39 -534.592L1107.27 -537.755ZM1097.22 -757.481L1105.75 -536.113L1108.91 -536.234L1100.39 -757.603L1097.22 -757.481ZM415.273 -465.567L193.905 -457.038L194.027 -453.876L415.395 -462.405L415.273 -465.567ZM425.444 -242.679L416.915 -464.047L413.753 -463.925L422.281 -242.557L425.444 -242.679ZM202.555 -232.508L423.923 -241.036L423.801 -244.199L202.433 -235.67L202.555 -232.508ZM192.385 -455.396L200.913 -234.028L204.075 -234.15L195.547 -455.518L192.385 -455.396ZM887.779 -480.604L1109.15 -489.133L1109.02 -492.295L887.657 -483.767L887.779 -480.604ZM897.827 -260.878L889.299 -482.246L886.137 -482.124L894.665 -260.756L897.827 -260.878ZM1117.55 -270.927L896.185 -262.398L896.307 -259.236L1117.68 -267.764L1117.55 -270.927ZM1107.5 -490.653L1116.03 -269.285L1119.2 -269.407L1110.67 -490.775L1107.5 -490.653ZM671.821 -742.675L450.453 -734.147L450.575 -730.984L671.943 -739.513L671.821 -742.675ZM681.992 -519.787L673.463 -741.155L670.301 -741.033L678.829 -519.665L681.992 -519.787ZM459.103 -509.616L680.471 -518.145L680.349 -521.307L458.981 -512.779L459.103 -509.616ZM448.933 -732.504L457.461 -511.136L460.623 -511.258L452.095 -732.626L448.933 -732.504ZM1144.33 -757.712L1365.69 -766.241L1365.57 -769.403L1144.2 -760.875L1144.33 -757.712ZM1154.37 -537.986L1145.85 -759.354L1142.68 -759.232L1151.21 -537.864L1154.37 -537.986ZM1374.1 -548.035L1152.73 -539.506L1152.85 -536.344L1374.22 -544.873L1374.1 -548.035ZM1364.05 -767.761L1372.58 -546.393L1375.74 -546.515L1367.21 -767.883L1364.05 -767.761ZM682.099 -475.847L460.731 -467.318L460.853 -464.156L682.221 -472.685L682.099 -475.847ZM692.27 -252.959L683.741 -474.327L680.579 -474.205L689.107 -252.837L692.27 -252.959ZM469.381 -242.788L690.749 -251.316L690.628 -254.479L469.26 -245.95L469.381 -242.788ZM459.211 -465.676L467.739 -244.308L470.902 -244.43L462.373 -465.798L459.211 -465.676ZM1154.61 -490.884L1375.97 -499.412L1375.85 -502.575L1154.48 -494.046L1154.61 -490.884ZM1164.65 -271.158L1156.13 -492.526L1152.96 -492.404L1161.49 -271.036L1164.65 -271.158ZM1384.38 -281.206L1163.01 -272.678L1163.13 -269.516L1384.5 -278.044L1384.38 -281.206ZM1374.33 -500.932L1382.86 -279.564L1386.02 -279.686L1377.49 -501.054L1374.33 -500.932Z" fill="black" mask="url(#path-2-inside-1_164_203)"/>
<rect y="0.120605" width="1519" height="1301.43" fill="#D15C5C"/>
<path d="M1590.35 84.4498C786.549 38.5751 69.3812 210.626 -188.728 302.386L190.218 1889.09L1638.9 1849.23L1590.35 84.4498Z" fill="#9A8A62"/>
<path d="M1651.71 176.608C853.211 73.6762 125.622 194.28 -138.36 267.449L126.765 1877.09L1574.61 1940.37L1651.71 176.608Z" stroke="black" stroke-width="1.58237"/>
<path d="M1686.9 -44.7833C888.142 -145.65 160.867 -23.1656 -102.925 50.6851L166.361 1659.63L1614.36 1719.18L1686.9 -44.7833Z" fill="#FFECBA"/>
<path d="M1731.69 78.227C939.786 -66.9466 206.821 14.8644 -60.6727 73.9166L118.634 1695.36L1561.08 1835.41L1731.69 78.227Z" stroke="black" stroke-width="1.58237"/>
</g>
<defs>
<clipPath id="clip0_164_203">
<rect width="1519" height="1302" fill="white"/>
</clipPath>
</defs>
</svg>
