<svg width="413" height="413" viewBox="0 0 413 413" fill="none" xmlns="http://www.w3.org/2000/svg">
<g filter="url(#filter0_i_160_6)">
<circle cx="206.285" cy="206.649" r="206.104" fill="#44DBDB"/>
</g>
<circle cx="206.285" cy="206.649" r="202.148" stroke="white" stroke-width="7.91187"/>
<path fill-rule="evenodd" clip-rule="evenodd" d="M213.953 133.861C218.186 134.047 221.834 136.285 225.464 138.469C229.465 140.877 234.075 142.898 236.027 147.14C238.078 151.596 238.064 157.018 236.063 161.497C234.153 165.773 229.757 168.166 225.638 170.395C222.007 172.359 218.044 172.912 213.953 173.461C209.139 174.107 203.753 176.612 199.744 173.87C195.735 171.128 195.723 165.278 194.974 160.479C194.337 156.394 194.617 152.375 195.772 148.405C196.962 144.312 198.351 140.082 201.679 137.419C205.089 134.691 209.591 133.668 213.953 133.861Z" fill="#3ECCCC"/>
<path fill-rule="evenodd" clip-rule="evenodd" d="M289.076 103.929C294.03 105.29 293.863 112.757 297.512 116.374C300.269 119.106 306.366 118.292 307.355 122.046C308.359 125.857 303.473 128.577 301.647 132.07C300.24 134.762 300.024 137.959 297.901 140.132C295.502 142.589 292.402 144.084 289.076 144.939C284.807 146.036 279.376 148.764 276.199 145.709C272.887 142.525 276.87 136.757 275.896 132.268C275.084 128.524 270.992 125.97 271.087 122.14C271.194 117.79 273.373 113.677 276.431 110.581C279.862 107.108 284.368 102.636 289.076 103.929Z" fill="#3ECCCC"/>
<path fill-rule="evenodd" clip-rule="evenodd" d="M340.641 164.897C344.601 165.797 346.284 170.332 348.939 173.404C350.89 175.661 353.165 177.619 354.089 180.456C355.014 183.295 354.583 186.25 354.085 189.194C353.497 192.666 353.934 197.145 350.948 199.012C347.934 200.897 344.153 197.051 340.641 197.601C335.947 198.337 331.829 204.983 327.687 202.655C323.747 200.44 327.64 193.803 326.237 189.506C324.832 185.199 319.028 182.491 319.642 178.003C320.25 173.565 325.26 171.257 329.06 168.886C332.611 166.67 336.56 163.969 340.641 164.897Z" fill="#3ECCCC"/>
<path fill-rule="evenodd" clip-rule="evenodd" d="M213.154 59.4839C216.47 60.763 217.625 64.7953 220.586 66.7623C223.773 68.88 228.804 68.0079 230.85 71.2414C232.939 74.5441 231.97 78.997 230.656 82.6777C229.368 86.286 227.057 89.6883 223.642 91.4262C220.448 93.0519 216.731 91.8197 213.154 91.5856C209.865 91.3702 206.545 91.6334 203.619 90.1152C200.344 88.4163 197.129 86.074 195.857 82.6113C194.565 79.0951 196.217 75.3855 196.849 71.6932C197.614 67.2273 196.309 61.5131 199.936 58.7973C203.556 56.0864 208.934 57.8562 213.154 59.4839Z" fill="#3ECCCC"/>
<path fill-rule="evenodd" clip-rule="evenodd" d="M115.252 110.935C119.164 110.274 123.692 109.591 126.81 112.045C129.914 114.488 128.869 119.409 130.556 122.98C132.637 127.386 139.45 130.694 137.784 135.273C136.095 139.914 128.596 137.995 124.243 140.327C120.808 142.166 119.141 147.581 115.252 147.341C111.323 147.097 110.236 141.555 107.036 139.262C103.799 136.942 98.9483 137.244 96.6362 134.001C94.0199 130.332 91.9852 125.067 94.0611 121.067C96.165 117.013 102.104 117.497 106.225 115.527C109.347 114.034 111.84 111.513 115.252 110.935Z" fill="#3ECCCC"/>
<path fill-rule="evenodd" clip-rule="evenodd" d="M214.254 230.412C219.088 230.387 224.294 229.817 228.225 232.63C232.165 235.45 234.585 240.325 234.862 245.162C235.112 249.533 231.796 253.055 229.61 256.848C227.921 259.779 226.072 262.409 223.595 264.715C220.76 267.354 218.072 270.48 214.254 271.14C210.103 271.858 205.859 270.55 202.229 268.409C198.323 266.106 193.316 263.24 193.173 258.708C193.025 253.988 200.315 252.289 201.58 247.74C202.955 242.796 197.357 236.912 200.386 232.77C203.224 228.891 209.448 230.436 214.254 230.412Z" fill="#3ECCCC"/>
<path fill-rule="evenodd" clip-rule="evenodd" d="M320.807 243.551C325.779 243.709 329.962 235.952 334.371 238.257C338.527 240.43 335.658 247.204 336.585 251.801C337.362 255.65 340.929 259.357 339.354 262.954C337.77 266.569 332.518 266.337 329.25 268.549C326.153 270.646 324.523 275.096 320.807 275.512C317.043 275.934 313.347 273.471 310.866 270.609C308.639 268.04 308.807 264.364 308.237 261.012C307.76 258.212 308.019 255.543 307.822 252.709C307.459 247.464 302.301 240.401 306.598 237.371C310.924 234.319 315.515 243.382 320.807 243.551Z" fill="#3ECCCC"/>
<path fill-rule="evenodd" clip-rule="evenodd" d="M280.695 304.767C284.296 305.409 287.503 306.819 290.672 308.646C294.248 310.708 298.373 312.345 300.231 316.031C302.22 319.977 302.908 325.007 300.904 328.945C298.964 332.758 294.208 333.873 290.284 335.578C287.204 336.916 284.043 337.971 280.695 337.725C277.527 337.493 274.515 336.277 272.076 334.241C269.752 332.301 269.258 329.115 267.462 326.679C264.388 322.511 257.788 320.136 257.856 314.958C257.92 310.055 263.273 306.562 267.751 304.564C271.791 302.762 276.34 303.992 280.695 304.767Z" fill="#3ECCCC"/>
<path fill-rule="evenodd" clip-rule="evenodd" d="M175.126 307.308C178.602 307.274 180.529 311.289 183.077 313.653C185.261 315.678 187.394 317.56 188.929 320.112C190.901 323.391 193.135 326.641 193.19 330.466C193.259 335.303 193.773 342.297 189.273 344.069C184.324 346.017 180.431 337.958 175.126 337.578C170.512 337.247 166.601 344.033 162.379 342.142C158.404 340.36 159.846 334.138 158.334 330.053C156.726 325.711 151.02 321.546 153.254 317.49C155.647 313.149 162.792 315.899 167.286 313.807C170.441 312.338 171.647 307.342 175.126 307.308Z" fill="#3ECCCC"/>
<path fill-rule="evenodd" clip-rule="evenodd" d="M108.306 204.476C111.358 204.218 114.281 204.648 117.204 205.565C121.498 206.912 126.8 207.213 129.189 211.027C131.646 214.949 130.449 220.142 129.109 224.572C127.747 229.074 125.77 233.934 121.6 236.11C117.567 238.214 112.564 237.024 108.306 235.426C104.967 234.174 103.704 230.205 100.708 228.27C97.4084 226.14 92.2351 227.042 90.1585 223.709C88.0527 220.329 88.5254 215.456 90.6103 212.063C92.5892 208.842 96.9625 208.471 100.437 206.981C103.03 205.869 105.494 204.714 108.306 204.476Z" fill="#3ECCCC"/>
<circle cx="206.286" cy="206.649" r="189.885" stroke="url(#paint0_linear_160_6)" stroke-width="16.6149"/>
<line x1="220.216" y1="166.312" x2="228.973" y2="151.145" stroke="#719840" stroke-width="2.37356"/>
<line x1="183.031" y1="247.777" x2="165.721" y2="250.44" stroke="#719840" stroke-width="2.37356"/>
<line x1="223.855" y1="340.415" x2="211.471" y2="328.031" stroke="#719840" stroke-width="2.37356"/>
<line x1="354.124" y1="257.491" x2="349.591" y2="240.574" stroke="#719840" stroke-width="2.37356"/>
<line x1="348.915" y1="139.672" x2="340.159" y2="154.84" stroke="#719840" stroke-width="2.37356"/>
<line x1="124.483" y1="89.5387" x2="107.173" y2="92.2018" stroke="#719840" stroke-width="2.37356"/>
<line x1="65.1431" y1="199.542" x2="73.8999" y2="184.375" stroke="#719840" stroke-width="2.37356"/>
<line x1="246.379" y1="64.6447" x2="237.623" y2="49.4774" stroke="#719840" stroke-width="2.37356"/>
<line x1="255.872" y1="229.036" x2="268.256" y2="241.42" stroke="#719840" stroke-width="2.37356"/>
<path d="M218.803 83.6212C218.803 83.6212 226.942 99.44 236.127 105.043C245.93 111.023 255.011 104.754 265.053 110.324C275.606 116.176 274.387 128.731 285.461 133.526C293.768 137.123 308.563 135.444 308.563 135.444" stroke="#F845B0" stroke-width="8.70306" stroke-linecap="round"/>
<path d="M306.728 152.019C306.728 152.019 298.589 136.2 289.404 130.597C279.601 124.617 270.52 130.885 260.478 125.316C249.925 119.463 251.144 106.909 240.071 102.114C231.763 98.5168 216.968 100.196 216.968 100.196" stroke="black" stroke-width="1.58237" stroke-linecap="round"/>
<path d="M193.577 312.659C193.577 312.659 181.621 299.485 171.299 296.451C160.282 293.212 153.133 301.617 141.992 298.836C130.284 295.914 128.212 283.473 116.275 281.707C107.319 280.382 93.463 285.833 93.463 285.833" stroke="#F845B0" stroke-width="8.70306" stroke-linecap="round"/>
<path d="M103.182 277.462C103.182 277.462 117.173 288.451 127.857 289.716C139.26 291.067 144.903 281.585 156.353 282.463C168.385 283.386 172.508 295.306 184.572 295.05C193.623 294.858 206.373 287.167 206.373 287.167" stroke="black" stroke-width="1.58237" stroke-linecap="round"/>
<path d="M261.192 299.222C261.192 299.222 277.011 291.083 282.614 281.898C288.594 272.095 282.325 263.014 287.894 252.972C293.747 242.419 306.301 243.638 311.096 232.564C314.694 224.257 313.015 209.462 313.015 209.462" stroke="#F846B0" stroke-width="8.70306" stroke-linecap="round"/>
<path d="M324.757 228.644C324.757 228.644 308.955 236.815 303.37 246.011C297.41 255.826 303.696 264.894 298.147 274.948C292.315 285.512 279.759 284.318 274.986 295.401C271.405 303.716 273.113 318.507 273.113 318.507" stroke="black" stroke-width="1.58237" stroke-linecap="round"/>
<path d="M148.311 211.474C148.311 211.474 153.742 194.533 151.209 184.077C148.506 172.916 137.652 170.927 134.489 159.888C131.166 148.288 140.905 140.273 136.465 129.052C133.135 120.634 121.486 111.36 121.486 111.36" stroke="#F845B0" stroke-width="8.70306" stroke-linecap="round"/>
<path d="M139.75 99.4434C139.75 99.4434 133.216 115.99 135.055 126.59C137.018 137.905 147.718 140.603 150.147 151.827C152.7 163.621 142.454 170.977 146.145 182.466C148.915 191.085 159.928 201.106 159.928 201.106" stroke="black" stroke-width="1.58237" stroke-linecap="round"/>
<circle cx="216.571" cy="207.835" r="5.46414" stroke="black" stroke-width="2.52191"/>
<circle cx="95.519" cy="230.384" r="5.46414" stroke="black" stroke-width="2.52191"/>
<circle cx="101.849" cy="153.639" r="5.46414" stroke="black" stroke-width="2.52191"/>
<circle cx="180.968" cy="121.992" r="5.46414" stroke="black" stroke-width="2.52191"/>
<circle cx="183.342" cy="57.905" r="5.46414" stroke="black" stroke-width="2.52191"/>
<circle cx="298.062" cy="184.495" r="5.46414" stroke="black" stroke-width="2.52191"/>
<circle cx="302.019" cy="84.8054" r="5.46414" stroke="black" stroke-width="2.52191"/>
<circle cx="153.278" cy="341.151" r="5.46414" stroke="black" stroke-width="2.52191"/>
<circle cx="254.547" cy="358.557" r="5.46414" stroke="black" stroke-width="2.52191"/>
<circle cx="328.128" cy="297.635" r="5.46414" stroke="black" stroke-width="2.52191"/>
<defs>
<filter id="filter0_i_160_6" x="0.180664" y="0.544434" width="412.208" height="412.208" filterUnits="userSpaceOnUse" color-interpolation-filters="sRGB">
<feFlood flood-opacity="0" result="BackgroundImageFix"/>
<feBlend mode="normal" in="SourceGraphic" in2="BackgroundImageFix" result="shape"/>
<feColorMatrix in="SourceAlpha" type="matrix" values="0 0 0 0 0 0 0 0 0 0 0 0 0 0 0 0 0 0 127 0" result="hardAlpha"/>
<feOffset dx="45.0976" dy="-22.1532"/>
<feComposite in2="hardAlpha" operator="arithmetic" k2="-1" k3="1"/>
<feColorMatrix type="matrix" values="0 0 0 0 0 0 0 0 0 0 0 0 0 0 0 0 0 0 0.25 0"/>
<feBlend mode="normal" in2="shape" result="effect1_innerShadow_160_6"/>
</filter>
<linearGradient id="paint0_linear_160_6" x1="36.1809" y1="324.535" x2="358.985" y2="70.9601" gradientUnits="userSpaceOnUse">
<stop stop-color="#DCDCDC"/>
<stop offset="1" stop-color="white"/>
</linearGradient>
</defs>
</svg>
