<svg width="199" height="122" viewBox="0 0 199 122" fill="none" xmlns="http://www.w3.org/2000/svg">
<path fill-rule="evenodd" clip-rule="evenodd" d="M161.567 53.0035C161.563 52.0645 161.527 51.1191 161.456 50.1682C159.834 28.302 140.793 11.891 118.926 13.5133C104.956 14.5498 93.2119 22.6969 86.9755 34.1484C81.2349 30.2599 74.1916 28.2066 66.74 28.7595C49.4052 30.0456 36.337 44.9551 37.2404 62.2276L31.578 62.6477C15.9592 63.8066 4.23709 77.4075 5.3959 93.0262C6.55471 108.645 20.1556 120.367 35.7744 119.208L165.864 109.557C181.483 108.398 193.205 94.7968 192.046 79.1781C190.887 63.5593 177.286 51.8372 161.667 52.996L161.567 53.0035Z" fill="#3D89A0"/>
<mask id="path-2-inside-1_180_571" fill="white">
<path fill-rule="evenodd" clip-rule="evenodd" d="M170.007 43.6499C170.075 42.7134 170.11 41.7678 170.112 40.8143C170.149 18.888 152.404 1.08306 130.478 1.04593C116.469 1.02221 104.142 8.25727 97.0571 19.204C91.6272 14.8922 84.7595 12.3118 77.2875 12.2991C59.9051 12.2697 45.746 26.1475 45.3397 43.4388L39.6619 43.4292C24.0002 43.4027 11.2824 56.0775 11.2559 71.7392C11.2294 87.4008 23.9042 100.119 39.5659 100.145L170.013 100.366C185.674 100.393 198.392 87.7178 198.419 72.0561C198.445 56.3944 185.77 43.6766 170.109 43.6501L170.007 43.6499Z"/>
</mask>
<path d="M170.007 43.6499L168.429 43.5359L168.307 45.2294L170.005 45.2323L170.007 43.6499ZM97.0571 19.204L96.0731 20.4432L97.4383 21.5273L98.3855 20.0638L97.0571 19.204ZM45.3397 43.4388L45.337 45.0212L46.8852 45.0238L46.9216 43.476L45.3397 43.4388ZM39.6619 43.4292L39.6592 45.0116L39.6619 43.4292ZM168.53 40.8117C168.528 41.7279 168.494 42.6363 168.429 43.5359L171.586 43.764C171.656 42.7904 171.693 41.8077 171.694 40.817L168.53 40.8117ZM130.475 2.6283C151.528 2.66395 168.565 19.7592 168.53 40.8117L171.694 40.817C171.733 18.0167 153.281 -0.497831 130.481 -0.536442L130.475 2.6283ZM98.3855 20.0638C105.191 9.5493 117.026 2.60553 130.475 2.6283L130.481 -0.536442C115.912 -0.561114 103.094 6.96523 95.7287 18.3442L98.3855 20.0638ZM77.2848 13.8815C84.3878 13.8935 90.9123 16.3451 96.0731 20.4432L98.0411 17.9648C92.3422 13.4393 85.1312 10.73 77.2902 10.7168L77.2848 13.8815ZM46.9216 43.476C47.3078 27.043 60.7648 13.8535 77.2848 13.8815L77.2902 10.7168C59.0454 10.6859 44.1843 25.252 43.7577 43.4016L46.9216 43.476ZM39.6592 45.0116L45.337 45.0212L45.3424 41.8564L39.6646 41.8468L39.6592 45.0116ZM12.8383 71.7418C12.8633 56.9541 24.8715 44.9865 39.6592 45.0116L39.6646 41.8468C23.129 41.8188 9.70155 55.2009 9.67355 71.7365L12.8383 71.7418ZM39.5685 98.5628C24.7808 98.5377 12.8132 86.5296 12.8383 71.7418L9.67355 71.7365C9.64555 88.2721 23.0276 101.7 39.5632 101.728L39.5685 98.5628ZM170.015 98.7837L39.5685 98.5628L39.5632 101.728L170.01 101.948L170.015 98.7837ZM196.836 72.0534C196.811 86.8412 184.803 98.8087 170.015 98.7837L170.01 101.948C186.546 101.976 199.973 88.5944 200.001 72.0588L196.836 72.0534ZM170.106 45.2325C184.894 45.2575 196.861 57.2657 196.836 72.0534L200.001 72.0588C200.029 55.5232 186.647 42.0957 170.111 42.0677L170.106 45.2325ZM170.005 45.2323L170.106 45.2325L170.111 42.0677L170.01 42.0675L170.005 45.2323Z" fill="black" mask="url(#path-2-inside-1_180_571)"/>
</svg>
