<svg width="413" height="413" viewBox="0 0 413 413" fill="none" xmlns="http://www.w3.org/2000/svg">
<g filter="url(#filter0_i_86_8)">
<circle cx="206.818" cy="206.212" r="206.104" fill="#F7CF6A"/>
</g>
<circle cx="206.818" cy="206.212" r="202.148" stroke="white" stroke-width="7.91187"/>
<path fill-rule="evenodd" clip-rule="evenodd" d="M90.7179 184.456C95.1014 184.355 97.7688 188.884 100.946 191.906C104.262 195.06 108.874 197.577 109.303 202.133C109.753 206.907 107.032 211.782 103.074 214.489C99.5385 216.908 94.9999 214.734 90.7179 214.846C86.2061 214.965 81.4277 217.694 77.6968 215.155C73.6306 212.386 71.3482 207.003 72.0437 202.133C72.6914 197.599 77.6253 195.516 80.9518 192.367C84.1146 189.373 86.3638 184.557 90.7179 184.456Z" fill="#EBC563"/>
<path fill-rule="evenodd" clip-rule="evenodd" d="M219.307 231.954C225.364 232.5 226.086 241.229 230.129 245.772C233.702 249.786 240.578 251.261 241.237 256.595C241.919 262.112 236.91 266.345 233.181 270.469C229.154 274.923 225.311 280.89 219.307 280.851C213.314 280.812 209.426 274.912 205.613 270.288C202.289 266.257 199.162 261.817 199.304 256.595C199.444 251.484 203.118 247.596 206.339 243.627C210.15 238.933 213.285 231.411 219.307 231.954Z" fill="#EBC563"/>
<path fill-rule="evenodd" clip-rule="evenodd" d="M194.504 155.522C200.431 154.172 207.522 156.924 210.787 162.052C213.834 166.839 209.291 172.665 209.028 178.334C208.79 183.472 211.992 188.764 209.343 193.173C206.215 198.38 200.405 203.953 194.504 202.508C188.566 201.054 188.957 192.379 185.503 187.335C183.203 183.976 178.213 182.397 177.951 178.334C177.683 174.174 181.816 171.468 184.264 168.094C187.564 163.546 189.026 156.77 194.504 155.522Z" fill="#EBC563"/>
<path fill-rule="evenodd" clip-rule="evenodd" d="M302.526 264.548C306.644 263.995 310.703 264.686 314.315 266.74C319.555 269.72 326.019 272.6 327.106 278.529C328.272 284.887 325.393 292.724 319.609 295.611C314.107 298.358 308.677 290.815 302.526 290.798C296.416 290.781 290.438 299.167 285.537 295.518C280.813 292 284.316 284.158 286.048 278.529C287.24 274.653 290.44 272.157 293.531 269.533C296.249 267.228 298.995 265.023 302.526 264.548Z" fill="#EBC563"/>
<path fill-rule="evenodd" clip-rule="evenodd" d="M253.441 325.048C258.863 323.273 265.333 321.404 269.903 324.818C274.701 328.402 276.135 335.369 275.169 341.279C274.306 346.554 269.252 349.541 265.277 353.115C261.639 356.386 258.286 360.131 253.441 360.812C247.894 361.592 241.586 361.053 237.736 356.985C233.937 352.971 233.337 346.564 234.955 341.279C236.288 336.928 241.682 335.942 245.102 332.94C248.091 330.315 249.66 326.286 253.441 325.048Z" fill="#EBC563"/>
<path fill-rule="evenodd" clip-rule="evenodd" d="M324.707 176.062C331.026 175.801 336.63 167.905 342.209 170.884C347.825 173.882 347.973 182.023 347.79 188.386C347.614 194.544 346.57 201.835 341.233 204.912C336.178 207.825 330.53 202.057 324.707 201.691C319.651 201.372 313.917 206.331 310.14 202.953C306.377 199.587 310.087 193.429 309.833 188.386C309.55 182.792 304.278 175.843 308.591 172.27C313.009 168.609 318.975 176.298 324.707 176.062Z" fill="#EBC563"/>
<path fill-rule="evenodd" clip-rule="evenodd" d="M252.661 77.9561C258.465 76.9061 264.909 78.512 268.987 82.7737C273.008 86.9764 272.877 93.2825 272.893 99.0993C272.909 104.94 272.879 111.082 269.077 115.516C265.036 120.229 258.836 123.344 252.661 122.695C246.865 122.087 242.645 117.213 239.365 112.395C236.717 108.505 236.221 103.79 236.596 99.0993C236.936 94.859 238.764 91.1629 241.338 87.7757C244.48 83.6403 247.55 78.8807 252.661 77.9561Z" fill="#EBC563"/>
<path fill-rule="evenodd" clip-rule="evenodd" d="M142.489 104.094C147.75 104.079 154.292 99.89 157.671 103.923C161.098 108.016 154.864 113.771 155.062 119.105C155.278 124.917 161.535 130.304 158.841 135.458C155.939 141.008 148.425 145.154 142.489 143.157C136.616 141.181 138.455 131.884 134.371 127.223C130.88 123.238 122.94 124.179 121.415 119.105C119.795 113.717 122.811 107.274 127.393 104.01C131.654 100.975 137.258 104.109 142.489 104.094Z" fill="#EBC563"/>
<path fill-rule="evenodd" clip-rule="evenodd" d="M134.101 290.116C139.732 291.675 140.463 299.117 143.634 304.025C145.714 307.245 148.183 309.875 149.246 313.558C150.92 319.353 155.283 326.238 151.377 330.834C147.497 335.397 140.002 332.395 134.101 331.373C129.52 330.579 125.286 328.947 121.926 325.733C118.478 322.433 116.241 318.271 115.484 313.558C114.553 307.766 113.617 301.317 117.266 296.723C121.163 291.815 128.061 288.443 134.101 290.116Z" fill="#EBC563"/>
<path d="M231.508 72.5398C232.365 75.0239 232.725 77.6525 232.566 80.2755C232.408 82.8985 231.734 85.4646 230.583 87.8273C229.433 90.19 227.829 92.3029 225.862 94.0455C223.895 95.7881 221.604 97.1262 219.12 97.9834C216.636 98.8406 214.007 99.2001 211.384 99.0415C208.761 98.8828 206.195 98.2091 203.832 97.0587C201.469 95.9083 199.357 94.3039 197.614 92.3369C195.871 90.37 194.533 88.0791 193.676 85.595L212.592 79.0674L231.508 72.5398Z" fill="#FF8832"/>
<path d="M222.909 75.507C223.35 76.7867 223.535 78.1408 223.454 79.4921C223.372 80.8433 223.025 82.1653 222.432 83.3824C221.84 84.5995 221.013 85.688 220 86.5857C218.987 87.4834 217.806 88.1727 216.527 88.6143C215.247 89.0559 213.893 89.2411 212.542 89.1594C211.19 89.0777 209.868 88.7306 208.651 88.138C207.434 87.5454 206.346 86.7188 205.448 85.7055C204.55 84.6923 203.861 83.5121 203.419 82.2324L213.164 78.8697L222.909 75.507Z" fill="#DB7429"/>
<mask id="path-14-inside-1_86_8" fill="white">
<path d="M233.878 68.9863C234.512 71.5365 234.637 74.1866 234.247 76.7853C233.857 79.384 232.959 81.8804 231.604 84.132C230.249 86.3836 228.464 88.3462 226.35 89.9079C224.237 91.4696 221.836 92.5997 219.286 93.2337C216.736 93.8677 214.086 93.9932 211.487 93.603C208.889 93.2129 206.392 92.3147 204.141 90.9597C201.889 89.6048 199.926 87.8196 198.365 85.7061C196.803 83.5927 195.673 81.1923 195.039 78.6421L214.458 73.8142L233.878 68.9863Z"/>
</mask>
<path d="M233.878 68.9863C234.512 71.5365 234.637 74.1866 234.247 76.7853C233.857 79.384 232.959 81.8804 231.604 84.132C230.249 86.3836 228.464 88.3462 226.35 89.9079C224.237 91.4696 221.836 92.5997 219.286 93.2337C216.736 93.8677 214.086 93.9932 211.487 93.603C208.889 93.2129 206.392 92.3147 204.141 90.9597C201.889 89.6048 199.926 87.8196 198.365 85.7061C196.803 83.5927 195.673 81.1923 195.039 78.6421L214.458 73.8142L233.878 68.9863Z" stroke="black" stroke-width="2.37356" mask="url(#path-14-inside-1_86_8)"/>
<path d="M310.407 146.804C312.317 145 314.564 143.589 317.02 142.653C319.475 141.717 322.091 141.274 324.718 141.348C327.345 141.423 329.931 142.014 332.329 143.089C334.727 144.163 336.89 145.699 338.695 147.609C340.5 149.52 341.91 151.767 342.846 154.222C343.783 156.677 344.226 159.293 344.151 161.92C344.076 164.547 343.485 167.133 342.411 169.531C341.336 171.93 339.8 174.093 337.89 175.897L324.149 161.351L310.407 146.804Z" fill="#FF8832"/>
<path d="M316.654 153.417C317.638 152.487 318.796 151.761 320.061 151.278C321.325 150.796 322.673 150.568 324.026 150.606C325.379 150.645 326.712 150.949 327.947 151.503C329.183 152.056 330.297 152.848 331.227 153.832C332.156 154.816 332.883 155.973 333.365 157.238C333.847 158.503 334.076 159.851 334.037 161.204C333.999 162.557 333.694 163.889 333.141 165.125C332.587 166.36 331.796 167.475 330.812 168.404L323.733 160.911L316.654 153.417Z" fill="#DB7429"/>
<mask id="path-17-inside-2_86_8" fill="white">
<path d="M313.746 151.826C315.927 150.36 318.375 149.339 320.952 148.82C323.528 148.301 326.181 148.294 328.759 148.8C331.338 149.307 333.791 150.316 335.98 151.77C338.169 153.225 340.049 155.096 341.515 157.278C342.98 159.459 344.001 161.908 344.52 164.484C345.04 167.06 345.046 169.713 344.54 172.291C344.034 174.87 343.024 177.324 341.57 179.512C340.115 181.701 338.244 183.581 336.063 185.047L324.904 168.436L313.746 151.826Z"/>
</mask>
<path d="M313.746 151.826C315.927 150.36 318.375 149.339 320.952 148.82C323.528 148.301 326.181 148.294 328.759 148.8C331.338 149.307 333.791 150.316 335.98 151.77C338.169 153.225 340.049 155.096 341.515 157.278C342.98 159.459 344.001 161.908 344.52 164.484C345.04 167.06 345.046 169.713 344.54 172.291C344.034 174.87 343.024 177.324 341.57 179.512C340.115 181.701 338.244 183.581 336.063 185.047L324.904 168.436L313.746 151.826Z" stroke="black" stroke-width="2.37356" mask="url(#path-17-inside-2_86_8)"/>
<path d="M312.413 311.096C310.827 313.191 308.843 314.954 306.576 316.282C304.309 317.611 301.802 318.48 299.199 318.84C296.596 319.2 293.948 319.044 291.405 318.38C288.862 317.717 286.475 316.559 284.38 314.973C282.285 313.386 280.523 311.403 279.194 309.136C277.865 306.869 276.996 304.362 276.636 301.759C276.276 299.156 276.433 296.508 277.096 293.965C277.76 291.422 278.918 289.035 280.504 286.94L296.458 299.018L312.413 311.096Z" fill="#FF8832"/>
<path d="M305.161 305.606C304.344 306.686 303.322 307.593 302.154 308.278C300.986 308.962 299.695 309.41 298.354 309.595C297.013 309.781 295.649 309.7 294.339 309.359C293.029 309.017 291.799 308.42 290.72 307.603C289.641 306.786 288.733 305.764 288.048 304.596C287.364 303.428 286.916 302.137 286.731 300.796C286.545 299.455 286.626 298.091 286.968 296.781C287.31 295.471 287.906 294.241 288.723 293.162L296.942 299.384L305.161 305.606Z" fill="#DB7429"/>
<mask id="path-20-inside-3_86_8" fill="white">
<path d="M315.94 314.939C314.642 317.224 312.907 319.231 310.834 320.845C308.76 322.46 306.389 323.65 303.856 324.348C301.323 325.046 298.676 325.238 296.069 324.914C293.461 324.589 290.943 323.754 288.658 322.456C286.373 321.159 284.366 319.423 282.751 317.35C281.137 315.277 279.947 312.906 279.249 310.372C278.55 307.839 278.358 305.193 278.683 302.585C279.007 299.977 279.842 297.459 281.14 295.174L298.54 305.056L315.94 314.939Z"/>
</mask>
<path d="M315.94 314.939C314.642 317.224 312.907 319.231 310.834 320.845C308.76 322.46 306.389 323.65 303.856 324.348C301.323 325.046 298.676 325.238 296.069 324.914C293.461 324.589 290.943 323.754 288.658 322.456C286.373 321.159 284.366 319.423 282.751 317.35C281.137 315.277 279.947 312.906 279.249 310.372C278.55 307.839 278.358 305.193 278.683 302.585C279.007 299.977 279.842 297.459 281.14 295.174L298.54 305.056L315.94 314.939Z" stroke="black" stroke-width="2.37356" mask="url(#path-20-inside-3_86_8)"/>
<path d="M134.68 318.114C133.004 316.091 131.742 313.757 130.967 311.246C130.193 308.735 129.92 306.096 130.166 303.479C130.411 300.863 131.169 298.321 132.397 295.997C133.625 293.674 135.298 291.615 137.322 289.939C139.345 288.262 141.679 287 144.19 286.226C146.701 285.451 149.34 285.179 151.957 285.424C154.573 285.669 157.116 286.427 159.439 287.655C161.762 288.883 163.821 290.557 165.498 292.58L150.089 305.347L134.68 318.114Z" fill="#FF8832"/>
<path d="M141.684 312.311C140.82 311.269 140.171 310.066 139.771 308.773C139.372 307.479 139.232 306.12 139.358 304.772C139.485 303.424 139.875 302.114 140.508 300.918C141.14 299.721 142.003 298.66 143.045 297.796C144.087 296.933 145.29 296.283 146.583 295.884C147.877 295.485 149.236 295.344 150.584 295.471C151.932 295.597 153.242 295.988 154.439 296.62C155.635 297.253 156.696 298.115 157.56 299.157L149.622 305.734L141.684 312.311Z" fill="#DB7429"/>
<mask id="path-23-inside-4_86_8" fill="white">
<path d="M133.513 309.064C132.174 306.803 131.294 304.3 130.922 301.699C130.551 299.097 130.695 296.448 131.347 293.903C132 291.357 133.147 288.965 134.724 286.863C136.3 284.76 138.276 282.989 140.537 281.651C142.798 280.312 145.301 279.431 147.903 279.06C150.504 278.688 153.153 278.833 155.699 279.485C158.244 280.137 160.636 281.285 162.739 282.861C164.841 284.438 166.612 286.414 167.951 288.675L150.732 298.869L133.513 309.064Z"/>
</mask>
<path d="M133.513 309.064C132.174 306.803 131.294 304.3 130.922 301.699C130.551 299.097 130.695 296.448 131.347 293.903C132 291.357 133.147 288.965 134.724 286.863C136.3 284.76 138.276 282.989 140.537 281.651C142.798 280.312 145.301 279.431 147.903 279.06C150.504 278.688 153.153 278.833 155.699 279.485C158.244 280.137 160.636 281.285 162.739 282.861C164.841 284.438 166.612 286.414 167.951 288.675L150.732 298.869L133.513 309.064Z" stroke="black" stroke-width="2.37356" mask="url(#path-23-inside-4_86_8)"/>
<rect x="73.2471" y="256.924" width="12.1151" height="19.3841" rx="0.605752" transform="rotate(-26.6859 73.2471 256.924)" fill="#D6D6D6"/>
<path d="M96.0699 245.68C100.327 254.15 88.992 250.923 79.4268 255.731C69.8616 260.538 65.6886 271.561 61.4313 263.091C57.1739 254.621 61.4768 243.857 71.042 239.049C80.6072 234.241 91.8126 237.21 96.0699 245.68Z" fill="#E8E8E8"/>
<path d="M70.8412 262.337C74.7081 259.981 77.2618 259.088 81.6224 258.45C81.6235 258.45 81.6239 258.45 81.6241 258.45L81.6241 258.45C81.6245 258.45 81.6254 258.45 81.6265 258.451C81.6287 258.452 81.6301 258.454 81.6311 258.456L87.8067 275.581C87.8072 275.582 87.8074 275.583 87.8075 275.584C87.8076 275.585 87.8076 275.585 87.8076 275.586C87.8075 275.587 87.8072 275.589 87.8062 275.591C87.8059 275.591 87.8055 275.592 87.8051 275.593C87.8045 275.593 87.8039 275.594 87.8034 275.595C87.8028 275.595 87.8019 275.596 87.7992 275.597L77.0306 279.48C77.028 279.481 77.0267 279.481 77.026 279.481C77.0249 279.481 77.0231 279.481 77.0211 279.48C77.0192 279.479 77.0178 279.478 77.017 279.477C77.0165 279.476 77.0157 279.476 77.0148 279.473L70.8391 262.348C70.838 262.345 70.8381 262.343 70.8389 262.34C70.8393 262.339 70.8398 262.339 70.84 262.338C70.8401 262.338 70.8403 262.338 70.8412 262.337Z" stroke="black" stroke-width="1.18678"/>
<path d="M93.0105 252.691C93.7824 254.832 93.6121 255.914 93.1132 256.522C92.8503 256.843 92.4452 257.103 91.863 257.309C91.2795 257.515 90.5555 257.654 89.6976 257.757C88.8418 257.86 87.8813 257.924 86.8289 257.99C86.7421 257.995 86.6547 258.001 86.5667 258.006C85.5935 258.067 84.5504 258.132 83.4691 258.233C81.1099 258.453 78.5387 258.847 76.0053 259.761C73.4718 260.675 71.2408 262.012 69.2839 263.348C68.387 263.961 67.5425 264.576 66.7546 265.151C66.6834 265.203 66.6126 265.254 66.5423 265.306C65.6901 265.927 64.91 266.49 64.1855 266.958C63.4593 267.426 62.8131 267.781 62.2323 267.994C61.6527 268.207 61.175 268.266 60.7679 268.187C59.9954 268.037 59.1739 267.313 58.4019 265.172C55.3851 256.807 60.5808 247.143 70.2034 243.673C79.826 240.203 89.9937 244.326 93.0105 252.691Z" stroke="black" stroke-width="1.18678"/>
<rect x="141.451" y="105.515" width="12.1151" height="19.3841" rx="0.605752" transform="rotate(22.3113 141.451 105.515)" fill="#D6D6D6"/>
<path d="M164.912 115.363C161.313 124.133 156.311 113.461 146.407 109.397C136.503 105.333 125.447 109.415 129.046 100.645C132.645 91.8749 143.591 88.0601 153.495 92.1243C163.399 96.1886 168.511 106.593 164.912 115.363Z" fill="#E8E8E8"/>
<rect x="281.481" y="124.278" width="12.1151" height="19.3841" rx="0.605752" transform="rotate(-136.372 281.481 124.278)" fill="#D6D6D6"/>
<path d="M263.207 106.577C269.748 99.7148 270.528 111.475 278.277 118.861C286.026 126.248 297.81 126.464 291.269 133.326C284.728 140.187 273.144 139.762 265.395 132.375C257.646 124.989 256.667 113.438 263.207 106.577Z" fill="#E8E8E8"/>
<rect x="331.441" y="240.634" width="12.1151" height="19.3841" rx="0.605752" transform="rotate(-55.8522 331.441 240.634)" fill="#D6D6D6"/>
<path d="M345.892 219.692C353.737 225.014 342.266 227.72 336.257 236.58C330.248 245.439 331.976 257.098 324.13 251.777C316.285 246.455 314.796 234.959 320.806 226.099C326.815 217.24 338.046 214.371 345.892 219.692Z" fill="#E8E8E8"/>
<rect x="219.508" y="319.352" width="12.1151" height="19.3841" rx="0.605752" transform="rotate(163.78 219.508 319.352)" fill="#D6D6D6"/>
<path d="M195.021 326.263C192.374 317.161 202.934 322.394 213.213 319.403C223.493 316.413 229.599 306.332 232.247 315.435C234.894 324.537 228.708 334.34 218.428 337.331C208.149 340.321 197.669 335.366 195.021 326.263Z" fill="#E8E8E8"/>
<line x1="132.466" y1="160.384" x2="149.08" y2="154.846" stroke="#719840" stroke-width="2.37356"/>
<g filter="url(#filter1_f_86_8)">
<line x1="92.2366" y1="122.817" x2="75.4509" y2="117.82" stroke="#719840" stroke-width="2.37356"/>
</g>
<line x1="211.294" y1="134.491" x2="200.628" y2="120.6" stroke="#719840" stroke-width="2.37356"/>
<line x1="173.361" y1="55.097" x2="161.727" y2="68.1879" stroke="#719840" stroke-width="2.37356"/>
<line x1="118.047" y1="65.3816" x2="115.73" y2="82.7413" stroke="#719840" stroke-width="2.37356"/>
<g filter="url(#filter2_f_86_8)">
<line x1="263.508" y1="81.5325" x2="251.229" y2="69.0443" stroke="#719840" stroke-width="2.37356"/>
</g>
<g filter="url(#filter3_f_86_8)">
<line x1="305.223" y1="174.03" x2="288.173" y2="178.031" stroke="#719840" stroke-width="2.37356"/>
</g>
<line x1="325.141" y1="124.124" x2="309.415" y2="116.415" stroke="#719840" stroke-width="2.37356"/>
<line x1="334.679" y1="284.675" x2="317.368" y2="287.338" stroke="#719840" stroke-width="2.37356"/>
<line x1="242.669" y1="286.207" x2="248.543" y2="269.708" stroke="#719840" stroke-width="2.37356"/>
<line x1="269.943" y1="352.168" x2="257.787" y2="339.56" stroke="#719840" stroke-width="2.37356"/>
<line x1="166.431" y1="357.811" x2="162.886" y2="340.66" stroke="#719840" stroke-width="2.37356"/>
<g filter="url(#filter4_f_86_8)">
<line x1="198.735" y1="287.291" x2="186.579" y2="274.683" stroke="#719840" stroke-width="2.37356"/>
</g>
<line x1="91.6331" y1="306.721" x2="98.5744" y2="290.641" stroke="#719840" stroke-width="2.37356"/>
<line x1="67.9576" y1="202.671" x2="80.2362" y2="215.159" stroke="#719840" stroke-width="2.37356"/>
<circle cx="206.817" cy="206.212" r="189.885" stroke="url(#paint0_linear_86_8)" stroke-width="16.6149"/>
<path d="M148.258 105.532C152.488 107.148 154.757 108.622 157.93 111.68C157.931 111.681 157.931 111.681 157.931 111.681L157.931 111.681C157.932 111.682 157.932 111.682 157.932 111.684C157.932 111.686 157.932 111.688 157.93 111.691L148.165 127.054C148.165 127.056 148.164 127.056 148.163 127.057C148.163 127.057 148.163 127.058 148.162 127.058C148.161 127.059 148.16 127.059 148.158 127.06C148.157 127.06 148.156 127.06 148.155 127.06C148.154 127.06 148.153 127.06 148.153 127.06C148.152 127.06 148.151 127.06 148.148 127.058L138.487 120.918C138.485 120.916 138.484 120.915 138.484 120.914C138.483 120.914 138.482 120.912 138.482 120.91C138.481 120.908 138.481 120.906 138.481 120.905C138.482 120.904 138.482 120.903 138.483 120.9L148.249 105.537C148.25 105.534 148.252 105.533 148.254 105.532C148.256 105.532 148.256 105.532 148.257 105.532C148.257 105.532 148.257 105.532 148.258 105.532Z" stroke="black" stroke-width="1.18678"/>
<path d="M169.453 117.162C168.233 119.083 167.273 119.61 166.486 119.588C166.072 119.576 165.618 119.415 165.099 119.08C164.579 118.745 164.026 118.258 163.419 117.642C162.814 117.028 162.176 116.308 161.48 115.516C161.423 115.45 161.365 115.384 161.307 115.318C160.663 114.586 159.974 113.8 159.232 113.007C157.614 111.276 155.729 109.484 153.456 108.039C151.183 106.594 148.76 105.648 146.506 104.918C145.472 104.583 144.469 104.292 143.532 104.021C143.448 103.996 143.363 103.972 143.28 103.948C142.267 103.654 141.344 103.382 140.531 103.094C139.716 102.807 139.04 102.513 138.516 102.184C137.993 101.856 137.654 101.514 137.468 101.144C137.114 100.441 137.183 99.348 138.404 97.4275C143.174 89.9224 153.997 88.1181 162.63 93.6052C171.263 99.0924 174.224 109.657 169.453 117.162Z" stroke="black" stroke-width="1.18678"/>
<path d="M287.324 126.752C282.939 125.622 280.519 124.413 277.021 121.732C277.02 121.731 277.02 121.731 277.02 121.73L277.02 121.73C277.02 121.73 277.019 121.729 277.019 121.728C277.018 121.725 277.019 121.723 277.02 121.721L284.993 105.355C284.994 105.354 284.994 105.353 284.995 105.353C284.995 105.352 284.996 105.352 284.996 105.352C284.997 105.351 284.998 105.35 285 105.349C285.001 105.349 285.002 105.349 285.003 105.349C285.004 105.348 285.005 105.348 285.005 105.348C285.006 105.348 285.007 105.349 285.01 105.35L295.301 110.364C295.303 110.365 295.304 110.366 295.305 110.366C295.305 110.367 295.306 110.369 295.307 110.371C295.308 110.373 295.308 110.375 295.308 110.376C295.308 110.376 295.308 110.378 295.306 110.38L287.333 126.746C287.332 126.748 287.33 126.75 287.328 126.751C287.327 126.752 287.326 126.752 287.325 126.752C287.325 126.752 287.325 126.752 287.324 126.752Z" stroke="black" stroke-width="1.18678"/>
<path d="M264.955 117.581C265.952 115.536 266.846 114.904 267.63 114.837C268.043 114.802 268.512 114.911 269.065 115.185C269.62 115.46 270.224 115.882 270.896 116.425C271.567 116.967 272.282 117.611 273.063 118.32C273.127 118.378 273.192 118.437 273.257 118.497C273.979 119.152 274.753 119.855 275.579 120.56C277.382 122.097 279.457 123.666 281.878 124.846C284.299 126.025 286.813 126.693 289.135 127.164C290.199 127.381 291.229 127.557 292.191 127.721C292.278 127.736 292.364 127.751 292.45 127.766C293.489 127.944 294.437 128.11 295.277 128.304C296.119 128.498 296.824 128.714 297.382 128.982C297.939 129.249 298.314 129.55 298.541 129.897C298.971 130.556 299.025 131.649 298.028 133.695C294.133 141.69 283.583 144.701 274.387 140.221C265.191 135.74 261.06 125.576 264.955 117.581Z" stroke="black" stroke-width="1.18678"/>
<path d="M333.738 234.354C336.47 230.743 338.518 228.976 342.341 226.782C342.341 226.782 342.342 226.782 342.342 226.782L342.342 226.782C342.343 226.781 342.343 226.781 342.345 226.782C342.347 226.782 342.349 226.783 342.351 226.785L354.379 240.45C354.38 240.451 354.381 240.452 354.381 240.452C354.381 240.453 354.381 240.453 354.382 240.454C354.382 240.455 354.382 240.457 354.382 240.459C354.382 240.46 354.382 240.46 354.382 240.461C354.382 240.462 354.381 240.463 354.381 240.464C354.381 240.464 354.38 240.465 354.378 240.467L345.785 248.031C345.783 248.033 345.782 248.033 345.781 248.033C345.78 248.034 345.778 248.034 345.776 248.034C345.774 248.034 345.772 248.033 345.771 248.033C345.771 248.032 345.77 248.032 345.768 248.03L333.739 234.365C333.737 234.363 333.737 234.361 333.737 234.358C333.737 234.357 333.737 234.356 333.737 234.356C333.737 234.356 333.737 234.355 333.738 234.354Z" stroke="black" stroke-width="1.18678"/>
<path d="M350.819 217.248C352.323 218.956 352.561 220.025 352.32 220.774C352.194 221.169 351.912 221.559 351.446 221.964C350.979 222.37 350.356 222.765 349.596 223.176C348.838 223.585 347.968 223.997 347.013 224.445C346.934 224.482 346.855 224.519 346.775 224.556C345.892 224.969 344.945 225.413 343.976 225.903C341.863 226.974 339.615 228.284 337.594 230.064C335.572 231.843 333.988 233.906 332.657 235.867C332.048 236.765 331.488 237.648 330.966 238.472C330.919 238.546 330.872 238.62 330.825 238.693C330.26 239.584 329.741 240.395 329.239 241.095C328.735 241.797 328.264 242.364 327.802 242.776C327.341 243.187 326.918 243.417 326.511 243.492C325.737 243.636 324.707 243.264 323.204 241.556C317.328 234.881 318.615 223.985 326.294 217.226C333.972 210.467 344.944 210.573 350.819 217.248Z" stroke="black" stroke-width="1.18678"/>
<path d="M221.059 315.995C216.607 316.823 213.903 316.749 209.6 315.795C209.599 315.795 209.598 315.795 209.598 315.795L209.598 315.795C209.598 315.794 209.597 315.794 209.596 315.793C209.595 315.791 209.594 315.789 209.594 315.786L209.912 297.584C209.912 297.583 209.912 297.582 209.912 297.581C209.912 297.58 209.912 297.58 209.912 297.58C209.913 297.579 209.914 297.577 209.915 297.576C209.916 297.575 209.917 297.575 209.917 297.574C209.918 297.574 209.919 297.573 209.919 297.573C209.92 297.573 209.921 297.572 209.924 297.572L221.37 297.772C221.373 297.772 221.374 297.772 221.374 297.773C221.375 297.773 221.377 297.774 221.379 297.776C221.38 297.777 221.381 297.779 221.381 297.78C221.382 297.78 221.382 297.782 221.382 297.784L221.065 315.986C221.065 315.989 221.064 315.991 221.062 315.993C221.061 315.994 221.061 315.995 221.06 315.995C221.06 315.995 221.06 315.995 221.059 315.995Z" stroke="black" stroke-width="1.18678"/>
<path d="M196.909 317.129C196.949 314.854 197.493 313.903 198.176 313.512C198.535 313.305 199.006 313.207 199.624 313.221C200.242 313.236 200.969 313.363 201.807 313.572C202.644 313.78 203.564 314.062 204.571 314.375C204.654 314.401 204.738 314.427 204.822 314.453C205.753 314.742 206.751 315.052 207.798 315.343C210.081 315.975 212.624 316.521 215.317 316.568C218.01 316.615 220.571 316.158 222.875 315.605C223.931 315.352 224.939 315.077 225.88 314.82C225.965 314.797 226.049 314.774 226.133 314.751C227.15 314.473 228.08 314.224 228.923 314.045C229.768 313.866 230.499 313.764 231.117 313.771C231.735 313.777 232.202 313.892 232.555 314.111C233.223 314.526 233.734 315.495 233.694 317.77C233.539 326.662 225.247 333.846 215.019 333.668C204.791 333.49 196.754 326.02 196.909 317.129Z" stroke="black" stroke-width="1.18678"/>
<path d="M92.7027 137.162C94.8798 138.623 96.7457 140.495 98.1939 142.672C99.6422 144.849 100.644 147.288 101.143 149.849C101.642 152.41 101.628 155.044 101.102 157.6C100.576 160.156 99.5474 162.584 98.076 164.745C96.6045 166.907 94.7187 168.759 92.5261 170.197C90.3335 171.635 87.8772 172.63 85.2973 173.126C82.7174 173.621 80.0645 173.607 77.4901 173.084C74.9156 172.562 72.47 171.541 70.293 170.08L81.4978 153.621L92.7027 137.162Z" fill="#FF8832"/>
<path d="M87.6101 144.643C88.7317 145.396 89.693 146.36 90.4391 147.482C91.1852 148.603 91.7015 149.859 91.9586 151.179C92.2156 152.499 92.2084 153.855 91.9372 155.172C91.6661 156.489 91.1364 157.74 90.3783 158.853C89.6203 159.967 88.6487 160.921 87.5191 161.662C86.3896 162.403 85.1241 162.915 83.795 163.171C82.4659 163.426 81.0992 163.419 79.7729 163.149C78.4466 162.88 77.1867 162.354 76.0651 161.602L81.8376 153.122L87.6101 144.643Z" fill="#DB7429"/>
<mask id="path-62-inside-5_86_8" fill="white">
<path d="M95.5247 143.435C97.4954 145.161 99.1045 147.255 100.26 149.598C101.416 151.941 102.095 154.487 102.26 157.09C102.424 159.694 102.07 162.305 101.219 164.772C100.367 167.24 99.0341 169.518 97.296 171.474C95.5579 173.431 93.4487 175.028 91.0887 176.176C88.7287 177.323 86.1643 177.997 83.5417 178.161C80.9192 178.324 78.2899 177.973 75.8041 177.127C73.3182 176.282 71.0244 174.959 69.0537 173.233L82.2892 158.334L95.5247 143.435Z"/>
</mask>
<path d="M95.5247 143.435C97.4954 145.161 99.1045 147.255 100.26 149.598C101.416 151.941 102.095 154.487 102.26 157.09C102.424 159.694 102.07 162.305 101.219 164.772C100.367 167.24 99.0341 169.518 97.296 171.474C95.5579 173.431 93.4487 175.028 91.0887 176.176C88.7287 177.323 86.1643 177.997 83.5417 178.161C80.9192 178.324 78.2899 177.973 75.8041 177.127C73.3182 176.282 71.0244 174.959 69.0537 173.233L82.2892 158.334L95.5247 143.435Z" stroke="black" stroke-width="2.37356" mask="url(#path-62-inside-5_86_8)"/>
<defs>
<filter id="filter0_i_86_8" x="0.713867" y="0.108154" width="412.208" height="412.208" filterUnits="userSpaceOnUse" color-interpolation-filters="sRGB">
<feFlood flood-opacity="0" result="BackgroundImageFix"/>
<feBlend mode="normal" in="SourceGraphic" in2="BackgroundImageFix" result="shape"/>
<feColorMatrix in="SourceAlpha" type="matrix" values="0 0 0 0 0 0 0 0 0 0 0 0 0 0 0 0 0 0 127 0" result="hardAlpha"/>
<feOffset dx="-39.5593" dy="27.6915"/>
<feComposite in2="hardAlpha" operator="arithmetic" k2="-1" k3="1"/>
<feColorMatrix type="matrix" values="0 0 0 0 0 0 0 0 0 0 0 0 0 0 0 0 0 0 0.25 0"/>
<feBlend mode="normal" in2="shape" result="effect1_innerShadow_86_8"/>
</filter>
<filter id="filter1_f_86_8" x="73.5299" y="115.1" width="20.6276" height="10.4367" filterUnits="userSpaceOnUse" color-interpolation-filters="sRGB">
<feFlood flood-opacity="0" result="BackgroundImageFix"/>
<feBlend mode="normal" in="SourceGraphic" in2="BackgroundImageFix" result="shape"/>
<feGaussianBlur stdDeviation="0.791187" result="effect1_foregroundBlur_86_8"/>
</filter>
<filter id="filter2_f_86_8" x="248.8" y="66.6298" width="17.1364" height="17.3171" filterUnits="userSpaceOnUse" color-interpolation-filters="sRGB">
<feFlood flood-opacity="0" result="BackgroundImageFix"/>
<feBlend mode="normal" in="SourceGraphic" in2="BackgroundImageFix" result="shape"/>
<feGaussianBlur stdDeviation="0.791187" result="effect1_foregroundBlur_86_8"/>
</filter>
<filter id="filter3_f_86_8" x="286.319" y="171.292" width="20.7575" height="9.47676" filterUnits="userSpaceOnUse" color-interpolation-filters="sRGB">
<feFlood flood-opacity="0" result="BackgroundImageFix"/>
<feBlend mode="normal" in="SourceGraphic" in2="BackgroundImageFix" result="shape"/>
<feGaussianBlur stdDeviation="0.791187" result="effect1_foregroundBlur_86_8"/>
</filter>
<filter id="filter4_f_86_8" x="184.142" y="272.277" width="17.029" height="17.4204" filterUnits="userSpaceOnUse" color-interpolation-filters="sRGB">
<feFlood flood-opacity="0" result="BackgroundImageFix"/>
<feBlend mode="normal" in="SourceGraphic" in2="BackgroundImageFix" result="shape"/>
<feGaussianBlur stdDeviation="0.791187" result="effect1_foregroundBlur_86_8"/>
</filter>
<linearGradient id="paint0_linear_86_8" x1="36.7121" y1="324.099" x2="359.516" y2="70.5236" gradientUnits="userSpaceOnUse">
<stop stop-color="white"/>
<stop offset="1" stop-color="#DCDCDC"/>
</linearGradient>
</defs>
</svg>
