<svg width="1519" height="975" viewBox="0 0 1519 975" fill="none" xmlns="http://www.w3.org/2000/svg">
<rect width="1519" height="27.6901" transform="matrix(1 0 0 -1 0 975.121)" fill="#4A1532"/>
<path fill-rule="evenodd" clip-rule="evenodd" d="M0 -0.362305L1519.48 -0.362305L1519.48 947.43L0 947.43L0 -0.362305ZM172.083 229.635L393.615 229.635V450.983L172.083 450.983L172.083 229.635ZM1087.88 229.635L866.35 229.635L866.35 450.983L1087.88 450.983V229.635ZM172.083 496.438L393.615 496.438L393.615 717.786L172.083 717.786L172.083 496.438ZM1087.88 496.438L866.35 496.438V717.786L1087.88 717.786L1087.88 496.438ZM439.109 229.635L660.642 229.635L660.642 450.983L439.109 450.983V229.635ZM1354.91 229.635L1133.37 229.635V450.983L1354.91 450.983V229.635ZM439.109 496.438L660.642 496.438V717.786H439.109L439.109 496.438ZM1354.91 496.438L1133.37 496.438L1133.37 717.786H1354.91L1354.91 496.438Z" fill="#FF7272"/>
<path d="M1686.9 930.217C888.142 829.35 160.867 951.834 -102.925 1025.69L166.361 2634.63L1614.36 2694.18L1686.9 930.217Z" fill="#FFECBA"/>
<path d="M1731.69 1053.23C939.786 908.053 206.821 989.864 -60.6727 1048.92L118.634 2670.36L1561.08 2810.41L1731.69 1053.23Z" stroke="black" stroke-width="1.58237"/>
</svg>
